<svg  viewBox="0 0 24 24" fill="currentColor" xmlns="http://www.w3.org/2000/svg"><path d="m15.4362056 3.97761907 7.0053362 11.97556123c.7290229 1.232372.7447453 2.760038.0412391 4.0071467-.70434 1.2485867-2.0208678 2.0239188-3.4705192 2.0380194l-14.03786859-.0000662c-1.43473754-.011668-2.75377112-.7893816-3.45822058-2.0390805-.70386488-1.2486618-.68742534-2.7797238.03924869-4.0015814l7.00793636-11.97994964c.71204093-1.225713 2.02333192-1.97932554 3.44110192-1.97766593 1.4176179.00165943 2.7284519.75839513 3.4317461 1.97761634zm-5.1449994 1.00728844-7.01312766 11.98878149c-.36381689.6117612-.37204688 1.3782439-.01964556 2.0034066.35278916.6258507 1.01348997 1.0154056 1.72409476 1.0212177l14.01997706.0000807c.7261716-.0070872 1.3855971-.3954374 1.7383246-1.020719.3522254-.6243916.3443543-1.389187-.0231316-2.0104248l-7.0108661-11.98502707c-.3492807-.60549006-1.0004355-.98139736-1.7047134-.98222177-.7043587-.00082451-1.3557505.37353709-1.7109121.98490615zm1.7091221 13.01343889c-.5524661 0-1.0003283-.4477153-1.0003283-1 0-.5522848.4478622-1 1.0003283-1 .552466 0 1.0003282.4477152 1.0003282 1 0 .5522847-.4478622 1-1.0003282 1zm-.9973739-10.00000001h2.0006565v7.00000001h-2.0006565z" fill-rule="evenodd"/></svg>
