<svg xmlns="http://www.w3.org/2000/svg" fill="currentColor" viewBox="0 0 24 24"><path d="M17.093 4.36h-2.897c-.523.002-.503.782 0 .777h2.897v.399h-2.897c-.52-.005-.5.775 0 .777h2.897v.407h-2.897c-.52 0-.5.78 0 .778h2.897v.388h-2.897c-.51.004-.5.784 0 .786h2.897v.39h-2.897c-.51-.002-.511.776 0 .776h2.897v.389h-2.897c-.51.001-.511.781 0 .777h2.897v.398h-2.897c-.51-.004-.511.774 0 .777h2.897v.388h-2.897c-.51 0-.5.78 0 .777h2.897v7.566c.001 1.154 1.753 1.133 1.758 0V3.204c-.005-.526-.438-1.192-1.15-1.194h-3.505c-.523 0-.503.78 0 .777l2.897.01v.387h-2.897c-.522-.003-.503.777 0 .777h2.897v.399Zm-3.096 13.414c-.002-1.346-1.396-2.793-3.063-1.856v-5.147L9.856 2.28c-.023-.224-.213-.277-.341-.281-.132.004-.397.057-.425.281l-1.073 8.49v5.147C6.35 14.981 5 16.438 5 17.764c0 1.18.909 2.149 2.138 2.146 1.238.003 2.13-1.083 2.13-2.146v-5.347h.416v5.347c0 1.19.921 2.07 1.946 2.127-.018.652.195 1.583.596 1.952.47.433 1.03-.12.8-.572-.221-.42-.439-.669-.262-1.586a2.095 2.095 0 0 0 1.233-1.91Zm-6.812 1.059a1.06 1.06 0 0 1 0-2.119 1.065 1.065 0 0 1 1.053 1.06 1.063 1.063 0 0 1-1.053 1.059Zm3.572-1.059a1.064 1.064 0 0 1 1.052-1.06 1.06 1.06 0 0 1 0 2.119 1.062 1.062 0 0 1-1.052-1.059Z"/></svg>