<svg xmlns="http://www.w3.org/2000/svg" fill="currentColor" viewBox="0 0 100 100"><path d="M77.3 97H22.7c-3.1 0-5.7-2.5-5.7-5.7V16.2c0-3.1 2.5-5.7 5.7-5.7h10.6V8.1c0-2.8 2.3-5.1 5.1-5.1h23.3c2.8 0 5.1 2.3 5.1 5.1v2.4h10.6c3.1 0 5.7 2.5 5.7 5.7v75.2c-.1 3.1-2.6 5.6-5.8 5.6M22.7 14.5c-.9 0-1.7.7-1.7 1.7v75.2c0 .9.7 1.7 1.7 1.7h54.7c.9 0 1.7-.7 1.7-1.7V16.2c0-.9-.7-1.7-1.7-1.7H66.8v.4c0 2.8-2.3 5.1-5.1 5.1H38.3c-2.8 0-5.1-2.3-5.1-5.1v-.4zm14.6.4c0 .6.5 1.1 1.1 1.1h23.3c.6 0 1.1-.5 1.1-1.1V8.1c0-.6-.5-1.1-1.1-1.1H38.3c-.6 0-1.1.5-1.1 1.1v6.8zm31.6 62.4H31.1c-1.1 0-2-.9-2-2s.9-2 2-2h37.8c1.1 0 2 .9 2 2s-.9 2-2 2m0-14.5H31.1c-1.1 0-2-.9-2-2s.9-2 2-2h37.8c1.1 0 2 .9 2 2s-.9 2-2 2m0-14.5H31.1c-1.1 0-2-.9-2-2s.9-2 2-2h37.8c1.1 0 2 .9 2 2s-.9 2-2 2m0-14.5H31.1c-1.1 0-2-.9-2-2s.9-2 2-2h37.8c1.1 0 2 .9 2 2s-.9 2-2 2"/></svg>