<svg viewBox="0 0 24 24" fill="currentColor" xmlns="http://www.w3.org/2000/svg"><path d="m20.0980654 15.8909586-1.4142409-1.4142409c.6341784-.6410703 1.2170849-1.3174652 1.7384284-1.9935938.1305879-.1693591.2512591-.3309463.3615818-.4831239-.1103227-.1521776-.2309939-.3137648-.3615818-.4831239-.6046417-.7841577-1.2920905-1.56867356-2.0462929-2.29802586-2.0934517-2.02447494-4.2708831-3.21885024-6.37596-3.21885024-.5223006 0-1.0490555.07352686-1.5778767.21501656l-1.58197356-1.5819736c1.03244676-.41166587 2.08690916-.63304296 3.15985026-.63304296 2.7275481 0 5.3356792 1.4306247 7.76629 3.78114976.8292195.8018977 1.5794035 1.65800688 2.2398009 2.51447414.3985027.5168169.6814351.9233706.8363444 1.1655786l.3445995.5387975-.3445995.5387975c-.1549093.242208-.4378417.6487617-.8363444 1.1655786-.571165.740742-1.209492 1.4812162-1.9080257 2.1865822zm-3.0925266 2.5287937c-1.6112459 1.0107396-3.2846234 1.5802477-5.0055388 1.5802477-2.72754815 0-5.33567916-1.4306247-7.76628997-3.7811498-.82921949-.8018977-1.57940351-1.6580068-2.23980092-2.5144741-.39850273-.5168169-.68143513-.9233706-.8363444-1.1655786l-.34459951-.5387975.34459951-.5387975c.15490927-.242208.43784167-.6487617.8363444-1.1655786.66039741-.85646726 1.41058143-1.71257644 2.23980092-2.51447414.37060907-.35839794.74534527-.69540926 1.12400265-1.00922352l-4.06481946-4.06481946 1.41421356-1.41421356 20.00000002 19.99999998-1.4142136 1.4142136zm-10.22581865-10.22581859c-.38739688.3124083-.77294206.65478918-1.15568018 1.02491653-.75420238.7293523-1.44165118 1.51386816-2.04629283 2.29802586-.1305879.1693591-.25125912.3309463-.36158188.4831239.11032276.1521776.23099398.3137648.36158188.4831239.60464165.7841577 1.29209045 1.5686736 2.04629283 2.2980259 2.09345169 2.0244749 4.27088318 3.2188502 6.37596003 3.2188502 1.1681669 0 2.3586152-.3678025 3.5446291-1.0411574l-1.5126618-1.5126617c-.5955132.3518897-1.2901587.5538191-2.0319673.5538191-2.209139 0-4-1.790861-4-4 0-.7418086.20192939-1.4364541.55381909-2.03196735zm3.28802305 3.28802309c-.0441859.1652266-.0677432.3388839-.0677432.5180432 0 1.1045695.8954305 2 2 2 .1791593 0 .3528166-.0235573.5180432-.0677432z" fill-rule="evenodd"/></svg>
