<svg xmlns="http://www.w3.org/2000/svg" fill="currentColor" viewBox="0 0 24 24"><path fill-rule="evenodd" d="m20.098 15.891-1.414-1.414a21.594 21.594 0 0 0 2.1-2.477 21.328 21.328 0 0 0-2.408-2.781C16.283 7.194 14.106 6 12 6c-.522 0-1.05.074-1.578.215L8.84 4.633C9.873 4.221 10.927 4 12 4c2.728 0 5.336 1.43 7.766 3.781.83.802 1.58 1.658 2.24 2.515.399.516.682.923.836 1.165l.345.539-.345.539c-.154.242-.437.649-.836 1.165a23.54 23.54 0 0 1-1.908 2.187zm-3.092 2.529C15.394 19.43 13.72 20 12 20c-2.728 0-5.336-1.43-7.766-3.781a23.305 23.305 0 0 1-2.24-2.515 17.484 17.484 0 0 1-.836-1.165L.813 12l.345-.539c.154-.242.437-.649.836-1.165.66-.857 1.41-1.713 2.24-2.515.37-.358.745-.695 1.124-1.01L1.293 2.708l1.414-1.414 20 20-1.414 1.414zM6.78 8.194c-.388.312-.773.655-1.156 1.025A21.328 21.328 0 0 0 3.216 12a21.328 21.328 0 0 0 2.408 2.781C7.717 16.806 9.894 18 12 18c1.168 0 2.359-.368 3.545-1.041l-1.513-1.513a4 4 0 0 1-5.478-5.478zm3.288 3.288a2.003 2.003 0 0 0 2.45 2.45z"/></svg>