<svg fill="currentColor" viewBox="0 0 24 24" xmlns="http://www.w3.org/2000/svg"><path d="m12 4c2.7275481 0 5.3356792 1.4306247 7.76629 3.78114976.8292195.8018977 1.5794035 1.65800688 2.2398009 2.51447414.3985027.5168169.6814351.9233706.8363444 1.1655786l.3445995.5387975-.3445995.5387975c-.1549093.242208-.4378417.6487617-.8363444 1.1655786-.6603974.8564673-1.4105814 1.7125764-2.2398009 2.5144741-2.4306108 2.3505251-5.0387419 3.7811498-7.76629 3.7811498-2.72754815 0-5.33567916-1.4306247-7.76628997-3.7811498-.82921949-.8018977-1.57940351-1.6580068-2.23980092-2.5144741-.39850273-.5168169-.68143513-.9233706-.8363444-1.1655786l-.34459951-.5387975.34459951-.5387975c.15490927-.242208.43784167-.6487617.8363444-1.1655786.66039741-.85646726 1.41058143-1.71257644 2.23980092-2.51447414 2.43061081-2.35052506 5.03874182-3.78114976 7.76628997-3.78114976zm8.4222529 7.5168761c-.6046417-.7841577-1.2920905-1.56867356-2.0462929-2.29802586-2.0934517-2.02447494-4.2708831-3.21885024-6.37596-3.21885024-2.10507685 0-4.28250834 1.1943753-6.37596003 3.21885024-.75420238.7293523-1.44165118 1.51386816-2.04629283 2.29802586-.1305879.1693591-.25125912.3309463-.36158188.4831239.11032276.1521776.23099398.3137648.36158188.4831239.60464165.7841577 1.29209045 1.5686736 2.04629283 2.2980259 2.09345169 2.0244749 4.27088318 3.2188502 6.37596003 3.2188502 2.1050769 0 4.2825083-1.1943753 6.37596-3.2188502.7542024-.7293523 1.4416512-1.5138682 2.0462929-2.2980259.1305879-.1693591.2512591-.3309463.3615818-.4831239-.1103227-.1521776-.2309939-.3137648-.3615818-.4831239zm-8.4222529 4.4831239c-2.209139 0-4-1.790861-4-4s1.790861-4 4-4 4 1.790861 4 4-1.790861 4-4 4zm0-2c1.1045695 0 2-.8954305 2-2s-.8954305-2-2-2-2 .8954305-2 2 .8954305 2 2 2z" fill-rule="evenodd"/></svg>
