<svg xmlns="http://www.w3.org/2000/svg" fill="none" viewBox="0 0 19 18"><g clip-path="url(#a)"><path fill="url(#b)" d="M8.015 17.91C3.74 17.145.5 13.455.5 9c0-4.95 4.05-9 9-9s9 4.05 9 9c0 4.455-3.24 8.145-7.515 8.91l-.495-.405H8.51l-.495.405Z"/><path fill="#fff" d="m13.009 11.522.405-2.52h-2.385V7.247c0-.72.27-1.26 1.35-1.26h1.17V3.692c-.63-.09-1.35-.18-1.98-.18-2.07 0-3.51 1.26-3.51 3.51v1.98h-2.25v2.52h2.25v6.345a8.286 8.286 0 0 0 2.97 0v-6.345h1.98Z"/></g><defs><linearGradient id="b" x1="9.5" x2="9.5" y1="17.374" y2="-.003" gradientUnits="userSpaceOnUse"><stop stop-color="#0062E0"/><stop offset="1" stop-color="#19AFFF"/></linearGradient><clipPath id="a"><path fill="#fff" d="M.5 0h18v18H.5z"/></clipPath></defs></svg>