<svg viewBox="0 0 19 18" fill="none" xmlns="http://www.w3.org/2000/svg">
<g id="Layer_1" clip-path="url(#clip0_29048_41446)">
<path id="Vector" d="M8.015 17.91C3.74 17.145 0.5 13.455 0.5 9C0.5 4.05 4.55 0 9.5 0C14.45 0 18.5 4.05 18.5 9C18.5 13.455 15.26 17.145 10.985 17.91L10.49 17.505H8.51L8.015 17.91Z" fill="url(#paint0_linear_29048_41446)"/>
<path id="Vector_2" d="M13.0086 11.5217L13.4136 9.00172H11.0286V7.24672C11.0286 6.52672 11.2986 5.98672 12.3786 5.98672H13.5486V3.69172C12.9186 3.60172 12.1986 3.51172 11.5686 3.51172C9.49859 3.51172 8.05859 4.77172 8.05859 7.02172V9.00172H5.80859V11.5217H8.05859V17.8667C8.55359 17.9567 9.04859 18.0017 9.54359 18.0017C10.0386 18.0017 10.5336 17.9567 11.0286 17.8667V11.5217H13.0086Z" fill="white"/>
</g>
<defs>
<linearGradient id="paint0_linear_29048_41446" x1="9.50045" y1="17.374" x2="9.50045" y2="-0.0033155" gradientUnits="userSpaceOnUse">
<stop stop-color="#0062E0"/>
<stop offset="1" stop-color="#19AFFF"/>
</linearGradient>
<clipPath id="clip0_29048_41446">
<rect width="18" height="18" fill="white" transform="translate(0.5)"/>
</clipPath>
</defs>
</svg>
