<svg xmlns="http://www.w3.org/2000/svg" fill="none" viewBox="0 0 22 16"><g clip-path="url(#a)"><g clip-path="url(#b)"><rect width="22" height="16" fill="#fff" rx="2"/><path fill="#1A47B8" fill-rule="evenodd" d="M0 0h9.429v7.467H0z" clip-rule="evenodd"/><path fill="#F93939" fill-rule="evenodd" d="M9.429 0v1.067H22V0zm0 2.133V3.2H22V2.133zm0 2.134v1.066H22V4.267zm0 2.133v1.067H22V6.4zM0 8.533V9.6h22V8.533zm0 2.134v1.066h22v-1.066zM0 12.8v1.067h22V12.8zm0 2.133V16h22v-1.067z" clip-rule="evenodd"/><path fill="#fff" fill-rule="evenodd" d="M1.048 1.067v1.067h1.047V1.067zm2.095 0v1.067H4.19V1.067zm2.095 0v1.067h1.048V1.067zm2.095 0v1.067h1.048V1.067zM6.286 2.134V3.2h1.047V2.134zm-2.096 0V3.2h1.048V2.134zm-2.095 0V3.2h1.048V2.134zM1.048 3.2v1.067h1.047V3.2zm2.095 0v1.067H4.19V3.2zm2.095 0v1.067h1.048V3.2zm2.095 0v1.067h1.048V3.2zM1.048 5.334V6.4h1.047V5.334zm2.095 0V6.4H4.19V5.334zm2.095 0V6.4h1.048V5.334zm2.095 0V6.4h1.048V5.334zM6.286 4.267v1.067h1.047V4.267zm-2.096 0v1.067h1.048V4.267zm-2.095 0v1.067h1.048V4.267z" clip-rule="evenodd"/></g></g><defs><clipPath id="a"><path fill="#fff" d="M0 0h22v16H0z"/></clipPath><clipPath id="b"><rect width="22" height="16" fill="#fff" rx="2"/></clipPath></defs></svg>