<svg viewBox="0 0 24 24" fill="currentColor" xmlns="http://www.w3.org/2000/svg"><path d="m3 11v8h18v-8zm0-2h18v-2l-9.005354-.00001433c-.7181545-.00384509-1.1859544-.34007644-1.6888138-.96344421-.0694041-.08603649-.2899585-.37213748-.32423442-.4153823-.3745762-.47259105-.59735336-.62115916-.98159778-.62115916h-6zm18-4c1.1045695 0 2 .8954305 2 2v12c0 1.1045695-.8954305 2-2 2h-18c-1.1045695 0-2-.8954305-2-2v-14c0-1.1045695.8954305-2 2-2h6c1.1200023 0 1.832939.47545118 2.5489764 1.37885309.0477783.06028043.2611235.33702966.3135067.40196636.1572429.1949255.1892964.21891011.1393032.21918055z" fill-rule="evenodd"/></svg>