<svg xmlns="http://www.w3.org/2000/svg" fill="none" viewBox="0 0 34 34"><g clip-path="url(#a)"><path fill="#4285F4" d="M2.318 29.748h5.41V16.612L0 10.816V27.43a2.318 2.318 0 0 0 2.318 2.318Z"/><path fill="#34A853" d="M26.273 29.748h5.41A2.318 2.318 0 0 0 34 27.43V10.816l-7.728 5.796"/><path fill="#FBBC04" d="M26.273 6.567v10.045l7.728-5.795V7.726c0-2.867-3.273-4.501-5.564-2.782"/><path fill="#EA4335" d="M7.727 16.612V6.566l9.272 6.955 9.273-6.955v10.046l-9.273 6.954"/><path fill="#C5221F" d="M0 7.726v3.09l7.727 5.796V6.567L5.564 4.944C3.269 3.224 0 4.86 0 7.726Z"/></g><defs><clipPath id="a"><path fill="#fff" d="M0 4.25h34v25.5H0z"/></clipPath></defs></svg>