<svg xmlns="http://www.w3.org/2000/svg" fill="none" viewBox="0 0 160 50"><rect width="160" height="50" fill="#0F1019" rx="8"/><path fill="#fff" fill-rule="evenodd" d="M72.43 10.908a.74.74 0 0 1-.533.214.73.73 0 0 1-.754-.754q0-.312.215-.52a.74.74 0 0 1 .54-.208.75.75 0 0 1 .532.208.68.68 0 0 1 .221.52.72.72 0 0 1-.22.54Zm-21.555 8.248q1.183 0 1.898-.429t1.209-1.222L54.073 19h1.001v-4.862H51.33v.858h2.626q-.104 1.482-.845 2.333-.74.852-2.197.852-.949 0-1.664-.448-.716-.45-1.118-1.281-.403-.832-.403-1.989t.41-1.989a3 3 0 0 1 1.15-1.28q.741-.45 1.742-.449 1.066 0 1.748.481.683.48.865 1.3h1.261q-.3-1.3-1.32-2.041c-1.02-.741-1.531-.741-2.554-.741q-1.352 0-2.346.598a4 4 0 0 0-1.535 1.664q-.54 1.066-.539 2.457 0 1.39.533 2.45a4 4 0 0 0 1.495 1.651q.962.592 2.236.592m8.473 0q1.144 0 1.879-.591.734-.592.994-1.489h-1.079a1.8 1.8 0 0 1-.663.845q-.455.312-1.13.312a2.04 2.04 0 0 1-1.748-.982q-.307-.487-.346-1.228h5.135q0-.182.007-.325.006-.142.006-.286a3.1 3.1 0 0 0-.364-1.482 2.86 2.86 0 0 0-1.046-1.111q-.683-.423-1.619-.423-.95 0-1.67.422a2.93 2.93 0 0 0-1.125 1.184q-.403.76-.403 1.774 0 1.027.41 1.781a3 3 0 0 0 1.124 1.177q.715.422 1.638.422m-2.08-3.978h4.056q-.039-.87-.598-1.365-.56-.495-1.378-.494-.78 0-1.384.474-.604.475-.696 1.385M66.872 19v-.936h-.676q-.624 0-.87-.215-.248-.215-.248-.825v-3.549h1.898v-.923h-1.898v-1.547h-.949l-.143 1.547h-1.118v.923h1.118v3.549q0 1.118.507 1.547t1.391.429zm5.571 0v-6.448h-1.092V19zm5.146-.936V19H76.6q-.885 0-1.391-.429-.507-.43-.507-1.547v-3.549h-1.118v-.923h1.118l.143-1.547h.949v1.547h1.898v.923h-1.898v3.549q0 .61.247.825t.87.215h.677Zm7.3 1.092a3.3 3.3 0 0 0 1.644-.416q.735-.416 1.164-1.176.429-.761.429-1.788c0-1.027-.141-1.28-.423-1.787a3 3 0 0 0-1.15-1.177 3.24 3.24 0 0 0-1.638-.416q-.91 0-1.645.416-.734.416-1.163 1.177-.43.76-.43 1.787t.423 1.788q.423.76 1.15 1.176a3.24 3.24 0 0 0 1.639.416m-1.02-1.209a2 2 0 0 0 1.02.273q.559 0 1.04-.273.48-.273.78-.819t.299-1.352-.293-1.352a2 2 0 0 0-1.8-1.092q-.56 0-1.04.273t-.78.819-.3 1.352.3 1.352.773.819ZM90.448 19v-3.341q0-1.118.553-1.723.553-.604 1.385-.604 1.665 0 1.664 2.015V19h1.092v-3.77q0-1.443-.683-2.139-.682-.695-1.826-.695-.741 0-1.326.351t-.897.962l-.065-1.157h-.988V19h1.092Zm-.553 20V26.76h-1.802V39zm-35.175-.306q-.9.51-2.346.51-1.683 0-2.941-.765c-1.258-.765-1.49-1.224-1.955-2.142q-.697-1.377-.697-3.213 0-1.82.714-3.213a5.3 5.3 0 0 1 2.032-2.184q1.317-.79 3.119-.791 2.04 0 3.4.986c1.36.986 1.496 1.564 1.768 2.72h-2.04a2.62 2.62 0 0 0-1.071-1.496q-.799-.544-2.057-.544-1.87 0-2.941 1.207c-1.071 1.207-1.071 1.915-1.071 3.332q0 2.125 1.054 3.315t2.805 1.19q1.769 0 2.66-1.003.893-1.003 1.046-2.669h-3.23V32.54h5.049V39H56.37l-.153-1.751a4.24 4.24 0 0 1-1.496 1.445Zm11.165-.043q-.969.553-2.176.553-1.206 0-2.167-.553a4.03 4.03 0 0 1-1.522-1.547q-.56-.994-.56-2.32t.569-2.32a4.1 4.1 0 0 1 1.538-1.547 4.3 4.3 0 0 1 2.16-.553q1.206 0 2.167.552.96.553 1.53 1.548.57.994.57 2.32t-.57 2.32a4.1 4.1 0 0 1-1.539 1.547m-2.176-.994q-.645 0-1.19-.323-.543-.323-.884-.96t-.34-1.59q0-.952.34-1.59.34-.637.893-.96a2.33 2.33 0 0 1 1.198-.323q.645 0 1.199.323.552.322.884.96.33.637.331 1.59 0 .952-.34 1.59-.34.637-.892.96a2.33 2.33 0 0 1-1.199.323m11.981.995q-.968.552-2.176.552-1.207 0-2.167-.553a4.03 4.03 0 0 1-1.522-1.547q-.56-.994-.56-2.32t.569-2.32a4.1 4.1 0 0 1 1.538-1.547 4.3 4.3 0 0 1 2.16-.553q1.207 0 2.167.552.96.553 1.53 1.548.57.994.57 2.32t-.57 2.32a4.1 4.1 0 0 1-1.539 1.547Zm-2.176-.995q-.645 0-1.19-.323-.543-.323-.884-.96t-.34-1.59q0-.952.34-1.59.34-.637.893-.96a2.33 2.33 0 0 1 1.198-.323q.646 0 1.199.323.552.322.884.96.33.637.331 1.59 0 .952-.34 1.59-.34.637-.892.96a2.33 2.33 0 0 1-1.199.323m11.021 4.87q-.841.417-2.15.417-1.769 0-2.865-.672-1.096-.67-1.096-2.031 0-.527.28-1.045.28-.519.893-.978a3.7 3.7 0 0 1-1.088-.697v-.408l1.462-1.496q-.987-.85-.986-2.227 0-.833.4-1.521a2.87 2.87 0 0 1 1.164-1.097q.765-.408 1.836-.408.714 0 1.326.204h3.145v1.19l-1.496.085q.408.697.408 1.547c0 .85-.134 1.077-.4 1.53a2.9 2.9 0 0 1-1.156 1.088q-.756.408-1.827.408-.663 0-1.224-.153l-.731.714q.186.12.459.204.272.086.765.153.492.067 1.343.136 1.683.153 2.43.808.75.654.749 1.742 0 .748-.4 1.42-.4.67-1.24 1.088Zm-2.15-7.522q-.799 0-1.284-.416-.484-.417-.484-1.182 0-.782.484-1.19t1.284-.408q.782 0 1.266.408.485.408.485 1.19 0 .765-.485 1.182-.484.416-1.266.416m-1.615 6.162q.645.366 1.615.366.934 0 1.513-.4.578-.399.578-1.062 0-.494-.391-.841-.391-.349-1.48-.434a15 15 0 0 1-1.444-.153q-.595.323-.816.697-.221.375-.221.731 0 .731.646 1.096m17.477-2.762q-1.012.8-2.508.799-1.24 0-2.201-.553a3.93 3.93 0 0 1-1.505-1.538q-.544-.986-.544-2.295 0-1.326.536-2.329a3.9 3.9 0 0 1 1.496-1.564q.96-.561 2.235-.561 1.24 0 2.16.552a3.9 3.9 0 0 1 1.427 1.471q.51.918.51 2.023a10 10 0 0 1-.034.799h-6.562q.085 1.224.808 1.861.722.638 1.674.638.765 0 1.284-.349a2.1 2.1 0 0 0 .773-.943H99.6a3.83 3.83 0 0 1-1.351 1.989Zm-.196-4.42h-4.76q.153-1.072.85-1.606a2.55 2.55 0 0 1 1.598-.536q.969 0 1.615.578.645.578.697 1.564m11.434.221h-2.363V39h-1.802V27.1h4.165q1.394 0 2.312.467.918.468 1.368 1.276.45.807.451 1.827 0 .969-.434 1.776-.433.809-1.351 1.284-.918.476-2.346.476m-.085-1.479h-2.278v-4.148h2.278q1.275 0 1.827.552.553.553.553 1.539 0 .952-.553 1.505-.552.552-1.827.552m7.357-5.967V39h-1.802V26.76zm4.756 12.444q1.105 0 1.785-.476a3.2 3.2 0 0 0 1.037-1.173l.153 1.445h1.564v-5.185q0-1.598-.969-2.524-.969-.927-2.737-.927a4.6 4.6 0 0 0-1.811.348 3.5 3.5 0 0 0-1.36 1.003q-.535.655-.62 1.573h1.802q.119-.714.671-1.08.553-.365 1.301-.365.85 0 1.385.493.536.494.536 1.479v.153h-2.21q-1.768 0-2.72.714t-.952 1.938q0 .697.34 1.284.34.585 1.037.943.697.357 1.768.357m-.825-1.794q.434.333 1.182.332.73 0 1.233-.348.5-.35.781-.927t.349-1.275h-2.006q-1.07 0-1.522.374-.45.375-.45.935 0 .578.433.91Zm9.712 5.33 5.44-12.172h-1.904l-2.703 6.239-2.584-6.239h-1.955l3.332 7.735h.493l-2.023 4.437z" clip-rule="evenodd"/><g clip-path="url(#a)"><path fill="#fff" fill-rule="evenodd" d="m17.464 15.119 9.449 9.896-9.404 9.982c-.274-.183-.421-.579-.424-1.09L17 16.188c-.003-.56.192-.902.464-1.07Zm12.565 6.588-11.49-6.575a1.1 1.1 0 0 0-.401-.132l9.166 9.6zm.51 6.282-2.842-2.977 2.84-3.014 3.91 2.237c.963.55.47 1.24 0 1.51zM18.29 35q.12-.047.25-.122l11.49-6.598-2.724-2.853L18.288 35Z" clip-rule="evenodd"/></g><defs><clipPath id="a"><path fill="#fff" d="M14 13h24v24H14z"/></clipPath></defs></svg>