<svg xmlns="http://www.w3.org/2000/svg" fill="none" viewBox="0 0 160 50"><rect width="160" height="50" fill="#0F1019" rx="8"/><path fill="#fff" fill-rule="evenodd" d="M72.43 10.908a.738.738 0 0 1-.533.214.732.732 0 0 1-.754-.754c0-.208.072-.381.215-.52a.744.744 0 0 1 .54-.208.75.75 0 0 1 .532.208.684.684 0 0 1 .221.52.72.72 0 0 1-.22.54Zm-21.555 8.248c.789 0 1.421-.143 1.898-.429.477-.286.88-.693 1.209-1.222L54.073 19h1.001v-4.862H51.33v.858h2.626c-.07.988-.351 1.766-.845 2.333-.494.568-1.226.852-2.197.852-.633 0-1.187-.15-1.664-.448-.477-.3-.85-.726-1.118-1.281-.269-.555-.403-1.218-.403-1.989 0-.771.136-1.434.41-1.989a3.008 3.008 0 0 1 1.15-1.28c.494-.3 1.075-.449 1.742-.449.71 0 1.294.16 1.748.481.455.32.744.754.865 1.3h1.261c-.2-.867-.64-1.547-1.32-2.041s-1.531-.741-2.554-.741c-.901 0-1.684.2-2.346.598a4.01 4.01 0 0 0-1.535 1.664c-.36.71-.539 1.53-.539 2.457 0 .927.178 1.744.533 2.45a4.002 4.002 0 0 0 1.495 1.651c.641.395 1.387.592 2.236.592Zm8.473 0c.763 0 1.389-.197 1.879-.591.49-.395.82-.891.994-1.489h-1.079a1.79 1.79 0 0 1-.663.845c-.303.208-.68.312-1.13.312a2.037 2.037 0 0 1-1.748-.982c-.205-.325-.32-.734-.346-1.228h5.135c0-.121.002-.23.007-.325.004-.095.006-.19.006-.286a3.12 3.12 0 0 0-.364-1.482 2.863 2.863 0 0 0-1.046-1.111c-.455-.282-.995-.423-1.619-.423-.633 0-1.19.14-1.67.422a2.93 2.93 0 0 0-1.125 1.184c-.269.506-.403 1.098-.403 1.774 0 .685.137 1.278.41 1.781a3 3 0 0 0 1.124 1.177c.477.281 1.023.422 1.638.422Zm-2.08-3.978h4.056c-.026-.58-.225-1.036-.598-1.365-.373-.33-.832-.494-1.378-.494-.52 0-.981.158-1.384.474-.403.317-.635.778-.696 1.385ZM66.872 19v-.936h-.676c-.416 0-.706-.072-.87-.215-.165-.143-.248-.418-.248-.825v-3.549h1.898v-.923h-1.898v-1.547h-.949l-.143 1.547h-1.118v.923h1.118v3.549c0 .745.17 1.261.507 1.547.338.286.802.429 1.391.429h.988Zm5.571 0v-6.448h-1.092V19h1.092Zm5.146-.936V19H76.6c-.59 0-1.053-.143-1.391-.429-.338-.286-.507-.802-.507-1.547v-3.549h-1.118v-.923h1.118l.143-1.547h.949v1.547h1.898v.923h-1.898v3.549c0 .407.082.682.247.825.164.143.455.215.87.215h.677Zm7.3 1.092a3.28 3.28 0 0 0 1.644-.416c.49-.277.878-.67 1.164-1.176.286-.508.429-1.103.429-1.788s-.141-1.28-.423-1.787a3.005 3.005 0 0 0-1.15-1.177 3.243 3.243 0 0 0-1.638-.416c-.607 0-1.155.139-1.645.416-.49.277-.877.67-1.163 1.177-.286.506-.43 1.102-.43 1.787 0 .685.142 1.28.423 1.788.282.506.665.899 1.15 1.176a3.242 3.242 0 0 0 1.639.416Zm-1.02-1.209a2.01 2.01 0 0 0 1.02.273c.372 0 .72-.091 1.04-.273.32-.182.58-.455.78-.819.2-.364.299-.815.299-1.352 0-.537-.098-.988-.293-1.352a1.995 1.995 0 0 0-1.8-1.092c-.373 0-.72.091-1.04.273-.32.182-.58.455-.78.819-.2.364-.3.815-.3 1.352 0 .537.1.988.3 1.352.2.364.457.637.773.819ZM90.448 19v-3.341c0-.745.185-1.32.553-1.723.369-.402.83-.604 1.385-.604 1.11 0 1.664.672 1.664 2.015V19h1.092v-3.77c0-.962-.228-1.675-.683-2.139-.455-.463-1.063-.695-1.826-.695-.494 0-.936.117-1.326.351-.39.234-.69.555-.897.962l-.065-1.157h-.988V19h1.092Zm-.553 20V26.76h-1.802V39h1.802Zm-35.175-.306c-.6.34-1.383.51-2.346.51-1.122 0-2.102-.255-2.941-.765s-1.49-1.224-1.955-2.142c-.465-.918-.697-1.989-.697-3.213 0-1.213.238-2.284.714-3.213a5.324 5.324 0 0 1 2.032-2.184c.878-.527 1.918-.791 3.119-.791 1.36 0 2.493.329 3.4.986s1.496 1.564 1.768 2.72h-2.04a2.624 2.624 0 0 0-1.071-1.496c-.533-.363-1.218-.544-2.057-.544-1.247 0-2.227.402-2.941 1.207s-1.071 1.915-1.071 3.332c0 1.417.351 2.522 1.054 3.315.703.793 1.638 1.19 2.805 1.19 1.179 0 2.066-.334 2.66-1.003.595-.669.944-1.558 1.046-2.669h-3.23V32.54h5.049V39H56.37l-.153-1.751a4.237 4.237 0 0 1-1.496 1.445Zm11.165-.043c-.646.369-1.371.553-2.176.553-.804 0-1.527-.184-2.167-.553a4.032 4.032 0 0 1-1.522-1.547c-.374-.663-.56-1.436-.56-2.32 0-.884.19-1.657.569-2.32a4.075 4.075 0 0 1 1.538-1.547 4.282 4.282 0 0 1 2.16-.553c.804 0 1.526.184 2.167.552.64.369 1.15.884 1.53 1.548.38.663.57 1.436.57 2.32 0 .884-.19 1.657-.57 2.32a4.074 4.074 0 0 1-1.539 1.547Zm-2.176-.994c-.43 0-.827-.108-1.19-.323-.362-.215-.657-.536-.884-.96-.226-.425-.34-.955-.34-1.59 0-.635.114-1.164.34-1.59.227-.425.524-.745.893-.96a2.334 2.334 0 0 1 1.198-.323c.43 0 .83.108 1.199.323.368.215.663.535.884.96.22.425.331.955.331 1.59 0 .635-.113 1.165-.34 1.59-.226.424-.524.745-.892.96a2.334 2.334 0 0 1-1.199.323Zm11.981.995c-.646.368-1.37.552-2.176.552-.804 0-1.527-.184-2.167-.553a4.032 4.032 0 0 1-1.522-1.547c-.374-.663-.56-1.436-.56-2.32 0-.884.19-1.657.569-2.32a4.075 4.075 0 0 1 1.538-1.547 4.282 4.282 0 0 1 2.16-.553c.804 0 1.527.184 2.167.552.64.369 1.15.884 1.53 1.548.38.663.57 1.436.57 2.32 0 .884-.19 1.657-.57 2.32a4.074 4.074 0 0 1-1.539 1.547Zm-2.176-.995c-.43 0-.827-.108-1.19-.323-.362-.215-.657-.536-.884-.96-.226-.425-.34-.955-.34-1.59 0-.635.114-1.164.34-1.59.227-.425.525-.745.893-.96a2.334 2.334 0 0 1 1.198-.323c.431 0 .83.108 1.199.323.368.215.663.535.884.96.22.425.331.955.331 1.59 0 .635-.113 1.165-.34 1.59-.226.424-.524.745-.892.96a2.334 2.334 0 0 1-1.199.323Zm11.021 4.87c-.56.278-1.278.417-2.15.417-1.179 0-2.134-.224-2.865-.672-.73-.447-1.096-1.124-1.096-2.031 0-.351.093-.7.28-1.045.187-.346.485-.672.893-.978a3.715 3.715 0 0 1-1.088-.697v-.408l1.462-1.496c-.658-.567-.986-1.309-.986-2.227 0-.555.133-1.063.4-1.521a2.868 2.868 0 0 1 1.164-1.097c.51-.272 1.122-.408 1.836-.408.476 0 .918.068 1.326.204h3.145v1.19l-1.496.085c.272.465.408.98.408 1.547s-.134 1.077-.4 1.53a2.9 2.9 0 0 1-1.156 1.088c-.504.272-1.113.408-1.827.408-.442 0-.85-.051-1.224-.153l-.731.714c.124.08.277.147.459.204.181.057.436.108.765.153.328.045.776.09 1.343.136 1.122.102 1.932.371 2.43.808.5.436.749 1.017.749 1.742 0 .499-.134.972-.4 1.42-.266.447-.68.81-1.24 1.088Zm-2.15-7.522c-.533 0-.96-.139-1.284-.416-.323-.278-.484-.672-.484-1.182 0-.521.161-.918.484-1.19.323-.272.751-.408 1.284-.408.521 0 .943.136 1.266.408.323.272.485.669.485 1.19 0 .51-.162.904-.485 1.182-.323.277-.745.416-1.266.416Zm-1.615 6.162c.43.244.969.366 1.615.366.623 0 1.127-.133 1.513-.4.385-.266.578-.62.578-1.062 0-.329-.13-.61-.391-.841-.261-.233-.754-.377-1.48-.434a14.944 14.944 0 0 1-1.444-.153c-.397.215-.669.448-.816.697-.148.25-.221.493-.221.731 0 .487.215.853.646 1.096Zm17.477-2.762c-.675.533-1.51.799-2.508.799-.827 0-1.561-.184-2.201-.553a3.929 3.929 0 0 1-1.505-1.538c-.363-.657-.544-1.422-.544-2.295 0-.884.179-1.66.536-2.329a3.9 3.9 0 0 1 1.496-1.564c.64-.374 1.385-.561 2.235-.561.827 0 1.547.184 2.16.552a3.906 3.906 0 0 1 1.427 1.471c.34.612.51 1.286.51 2.023a9.688 9.688 0 0 1-.034.799h-6.562c.057.816.326 1.436.808 1.861.481.425 1.04.638 1.674.638.51 0 .938-.116 1.284-.349a2.11 2.11 0 0 0 .773-.943H99.6a3.832 3.832 0 0 1-1.351 1.989Zm-.196-4.42h-4.76c.102-.714.385-1.25.85-1.606a2.552 2.552 0 0 1 1.598-.536c.646 0 1.184.193 1.615.578.43.385.663.907.697 1.564Zm11.434.221h-2.363V39h-1.802V27.1h4.165c.929 0 1.7.156 2.312.467.612.312 1.068.737 1.368 1.276.3.538.451 1.147.451 1.827 0 .646-.145 1.238-.434 1.776-.289.539-.739.967-1.351 1.284-.612.317-1.394.476-2.346.476Zm-.085-1.479h-2.278v-4.148h2.278c.85 0 1.459.184 1.827.552.368.369.553.882.553 1.539 0 .635-.185 1.136-.553 1.505-.368.368-.977.552-1.827.552Zm7.357-5.967V39h-1.802V26.76h1.802Zm4.756 12.444c.737 0 1.332-.159 1.785-.476a3.206 3.206 0 0 0 1.037-1.173l.153 1.445h1.564v-5.185c0-1.065-.323-1.907-.969-2.524-.646-.618-1.558-.927-2.737-.927a4.61 4.61 0 0 0-1.811.348 3.474 3.474 0 0 0-1.36 1.003c-.357.437-.563.961-.62 1.573h1.802c.079-.476.303-.836.671-1.08.369-.243.802-.365 1.301-.365.567 0 1.028.164 1.385.493.357.329.536.822.536 1.479v.153h-2.21c-1.179 0-2.085.238-2.72.714-.635.476-.952 1.122-.952 1.938 0 .465.113.893.34 1.284.227.39.572.705 1.037.943.465.238 1.054.357 1.768.357Zm-.825-1.794c.29.222.683.332 1.182.332.487 0 .898-.116 1.233-.348.334-.233.594-.542.781-.927.187-.385.304-.81.349-1.275h-2.006c-.714 0-1.221.125-1.522.374-.3.25-.45.561-.45.935 0 .385.144.689.433.91Zm9.712 5.33 5.44-12.172h-1.904l-2.703 6.239-2.584-6.239h-1.955l3.332 7.735h.493l-2.023 4.437h1.904Z" clip-rule="evenodd"/><g clip-path="url(#a)"><path fill="#fff" fill-rule="evenodd" d="m17.464 15.119 9.449 9.896-9.404 9.982c-.274-.183-.421-.579-.424-1.09L17 16.188c-.003-.56.192-.902.464-1.07Zm12.565 6.588-11.49-6.575a1.115 1.115 0 0 0-.401-.132l9.166 9.6 2.725-2.893Zm.51 6.282-2.842-2.977 2.84-3.014 3.91 2.237c.963.55.47 1.24 0 1.51L30.54 27.99ZM18.29 35c.08-.032.163-.072.25-.122l11.49-6.598-2.724-2.853L18.288 35Z" clip-rule="evenodd"/></g><defs><clipPath id="a"><path fill="#fff" d="M14 13h24v24H14z"/></clipPath></defs></svg>