<svg xmlns="http://www.w3.org/2000/svg" fill="none" viewBox="0 0 19 18"><path fill="#fff" d="M6.684.492c-2.237.75-4.142 2.39-5.204 4.465a8.789 8.789 0 0 0-.8 2.264 8.867 8.867 0 0 0 .795 5.82 9.12 9.12 0 0 0 2.494 3.004 9.224 9.224 0 0 0 3.337 1.65c1.53.401 3.16.391 4.7.048 1.393-.315 2.71-.968 3.762-1.916 1.111-1.001 1.906-2.317 2.326-3.735.459-1.543.518-3.192.232-4.779h-8.64v3.512h5.006a4.232 4.232 0 0 1-1.837 2.782 5.325 5.325 0 0 1-2.024.783 6.18 6.18 0 0 1-2.192-.004 5.496 5.496 0 0 1-2.044-.866 5.575 5.575 0 0 1-2.103-2.763 5.356 5.356 0 0 1 0-3.502 5.603 5.603 0 0 1 1.333-2.124A5.478 5.478 0 0 1 8.57 3.636a5.588 5.588 0 0 1 2.696.107 4.99 4.99 0 0 1 1.98 1.142l1.688-1.655c.296-.295.607-.58.894-.885A8.986 8.986 0 0 0 12.87.55 9.449 9.449 0 0 0 6.684.492Z"/><path fill="#EA4335" d="M6.684.493a9.48 9.48 0 0 1 6.186.053 8.956 8.956 0 0 1 2.958 1.794c-.287.305-.598.59-.894.886L13.246 4.88a5.025 5.025 0 0 0-1.98-1.141 5.53 5.53 0 0 0-2.696-.107c-1.037.218-2 .75-2.745 1.495a5.566 5.566 0 0 0-1.333 2.124C3.49 6.486 2.488 5.727 1.48 4.962c1.062-2.08 2.968-3.72 5.204-4.47Z"/><path fill="#FBBC05" d="M.684 7.217c.163-.784.43-1.548.8-2.264 1.002.764 2.004 1.524 3.012 2.288a5.324 5.324 0 0 0 0 3.503c-1.003.764-2.005 1.528-3.007 2.288a8.792 8.792 0 0 1-.805-5.815Z"/><path fill="#4285F4" d="M9.685 7.305h8.64a10.434 10.434 0 0 1-.232 4.78c-.42 1.417-1.215 2.732-2.326 3.734l-2.918-2.22a4.232 4.232 0 0 0 1.837-2.782H9.68c.005-1.17.005-2.342.005-3.512Z"/><path fill="#34A853" d="M1.48 13.034c1.003-.76 2.005-1.524 3.007-2.288a5.604 5.604 0 0 0 2.103 2.762 5.53 5.53 0 0 0 2.044.866c.721.145 1.467.126 2.192.005a5.321 5.321 0 0 0 2.025-.784l2.917 2.22c-1.051.954-2.37 1.602-3.762 1.917-1.54.343-3.17.353-4.7-.049a9.145 9.145 0 0 1-3.337-1.65 9.098 9.098 0 0 1-2.489-2.999Z"/></svg>