<svg  viewBox="0 0 24 24" fill="currentColor" xmlns="http://www.w3.org/2000/svg"><path d="m13.1026543 2.69607267c1.0697365-.52360889 2.002903-.69607421 3.4505766-.69605657 3.7047186.01534222 6.4467691 3.13982855 6.4467691 7.11986004 0 3.03787576-1.6938316 5.97240446-4.8488399 8.81001506-1.656054 1.4894531-3.770482 2.9634321-5.2847631 3.7475809l-.866397.4486512-.866397-.4486512c-1.5142811-.7841488-3.62870906-2.2581278-5.28476315-3.7475809-3.15500826-2.8376106-4.84883985-5.7721393-4.84883985-8.81001506 0-4.02260921 2.71643647-7.11987614 6.45454545-7.11987614 1.3957338 0 2.37677302.18877527 3.46726535.72813403.3796679.18778419.7363812.41052733 1.0681601.66762644.3450694-.27236821.7166316-.50583051 1.1126834-.6996878zm3.7110704 13.74678583c2.7724532-2.4935411 4.1862753-4.9429591 4.1862753-7.32298236 0-2.93091231-1.9117933-5.10934489-4.4509166-5.11986861-1.1620777-.0000073-1.8032118.11848539-2.5671598.4924185-.4699135.23001073-.8868186.54052517-1.2504734.93512346l-.7291125.7911529-.7358065-.78493111c-.3556555-.37940019-.7665255-.6830025-1.2313964-.91292821-.78700786-.38925499-1.47085307-.52084307-2.58058935-.52084307-2.57090418 0-4.45454545 2.14771812-4.45454545 5.11987614 0 2.38002326 1.41382212 4.82944126 4.18627532 7.32298236 1.51154396 1.3594808 3.45476298 2.7180761 4.81372468 3.4308397 1.3589617-.7127636 3.3021807-2.0713589 4.8137247-3.4308397z" fill-rule="evenodd"/></svg>
