<svg viewBox="0 0 24 24" fill="currentColor" xmlns="http://www.w3.org/2000/svg"><path d="m4 15.5857864 4-4 3.5 3.5 6.5-6.49999996 2 1.99999996v-6.5857864h-16zm0 2.8284272v1.5857864h9.5857864l-5.5857864-5.5857864zm12.4142136 1.5857864h3.5857864v-6.5857864l-2-2-5.0857864 5.0857864zm-12.4142136-18h16c1.1045695 0 2 .8954305 2 2v16c0 1.1045695-.8954305 2-2 2h-16c-1.1045695 0-2-.8954305-2-2v-16c0-1.1045695.8954305-2 2-2zm7 3c1.6568542 0 3 1.34314575 3 3s-1.3431458 3-3 3c-1.65685425 0-3-1.34314575-3-3s1.34314575-3 3-3zm0 2c-.5522847 0-1 .44771525-1 1s.4477153 1 1 1 1-.44771525 1-1-.4477153-1-1-1z" fill-rule="evenodd"/></svg>
