<svg fill="currentColor" viewBox="0 0 15 14" fill="none" xmlns="http://www.w3.org/2000/svg">
<path fill-rule="evenodd" clip-rule="evenodd" d="M1.8874 6.25H6V7.75H9V6.25H13.113L11.333 2.09297C11.249 1.92958 11.1715 1.81491 11.1088 1.74995L3.88194 1.74717C3.82402 1.8096 3.75249 1.91897 3.68936 2.04544L1.8874 6.25ZM13.5 7.75H10.5C10.5 8.57843 9.82843 9.25 9 9.25H6C5.17157 9.25 4.5 8.57843 4.5 7.75H1.5V12.25H13.5V7.75ZM15 12.25C15 13.0784 14.3284 13.75 13.5 13.75H1.5C0.671573 13.75 0 13.0784 0 12.25V6.84606L0.0606412 6.70456L2.32677 1.41945C2.66477 0.731062 3.09108 0.304755 3.75 0.25H11.25L11.3481 0.256446C11.9128 0.330952 12.3263 0.744515 12.6894 1.45456L15 6.84606V12.25Z" fill="#323E4A"/>
</svg>
