<svg xmlns="http://www.w3.org/2000/svg" fill="currentColor" viewBox="0 0 15 14"><path fill-rule="evenodd" d="M1.887 6.25H6v1.5h3v-1.5h4.113l-1.78-4.157a1.515 1.515 0 0 0-.224-.343l-7.227-.003a1.37 1.37 0 0 0-.193.298L1.887 6.25ZM13.5 7.75h-3A1.5 1.5 0 0 1 9 9.25H6a1.5 1.5 0 0 1-1.5-1.5h-3v4.5h12v-4.5Zm1.5 4.5a1.5 1.5 0 0 1-1.5 1.5h-12a1.5 1.5 0 0 1-1.5-1.5V6.846l.06-.141 2.267-5.286C2.665.731 3.09.305 3.75.25h7.5l.098.006c.565.075.978.489 1.341 1.199L15 6.846v5.404Z" clip-rule="evenodd"/></svg>
