<svg xmlns="http://www.w3.org/2000/svg" fill="none" viewBox="0 0 15 15"><path fill="url(#a)" fill-rule="evenodd" d="M4.5 0h6A4.5 4.5 0 0 1 15 4.5v6a4.5 4.5 0 0 1-4.5 4.5h-6A4.5 4.5 0 0 1 0 10.5v-6A4.5 4.5 0 0 1 4.5 0Zm0 1.5a3 3 0 0 0-3 3v6a3 3 0 0 0 3 3h6a3 3 0 0 0 3-3v-6a3 3 0 0 0-3-3h-6Zm3 9.75a3.75 3.75 0 1 1 0-7.5 3.75 3.75 0 0 1 0 7.5Zm0-1.5a2.25 2.25 0 1 0 0-4.5 2.25 2.25 0 0 0 0 4.5Zm3.75-5.25a.75.75 0 1 1 0-1.5.75.75 0 0 1 0 1.5Z" clip-rule="evenodd"/><defs><radialGradient id="a" cx="0" cy="0" r="1" gradientTransform="matrix(21.66087 -1.1352 .9649 18.41153 .272 13.624)" gradientUnits="userSpaceOnUse"><stop stop-color="#FED576"/><stop offset=".263" stop-color="#F47133"/><stop offset=".609" stop-color="#BC3081"/><stop offset="1" stop-color="#4C63D2"/></radialGradient></defs></svg>