<svg xmlns="http://www.w3.org/2000/svg" fill="none" viewBox="0 0 92 92"><linearGradient id="a" x1="89.802" x2="-1.76" y1="91.562" y2="0" gradientUnits="userSpaceOnUse"><stop offset="0" stop-color="#fbe18a"/><stop offset=".21" stop-color="#fcbb45"/><stop offset=".38" stop-color="#f75274"/><stop offset=".52" stop-color="#d53692"/><stop offset=".74" stop-color="#8f39ce"/><stop offset="1" stop-color="#5b4fe9"/></linearGradient><rect width="91.562" height="91.562" fill="url(#a)" rx="45.781"/><path fill="#fff" d="M38.161 45.898a7.635 7.635 0 1 1 15.27 0 7.636 7.636 0 1 1-15.269 0zm-4.127 0c0 6.498 5.265 11.764 11.76 11.764s11.762-5.266 11.762-11.764-5.266-11.764-11.761-11.764S34.034 39.4 34.034 45.898zm21.239-12.23a2.75 2.75 0 0 0 4.691 1.945 2.75 2.75 0 0 0-1.941-4.694h-.002a2.75 2.75 0 0 0-2.748 2.748zM36.54 64.546c-2.232-.102-3.446-.474-4.253-.788-1.07-.417-1.832-.913-2.634-1.714s-1.3-1.564-1.714-2.633c-.314-.807-.686-2.021-.788-4.255-.11-2.415-.133-3.14-.133-9.259s.024-6.841.134-9.258c.101-2.234.476-3.446.787-4.255.417-1.07.912-1.833 1.714-2.635.8-.803 1.563-1.3 2.634-1.714.806-.315 2.02-.687 4.254-.788 2.414-.111 3.139-.133 9.253-.133s6.84.024 9.256.133c2.233.102 3.445.476 4.253.788 1.07.415 1.833.912 2.635 1.714.802.801 1.297 1.565 1.713 2.635.314.806.686 2.02.788 4.255.111 2.417.133 3.14.133 9.258s-.022 6.842-.133 9.259c-.102 2.234-.476 3.448-.788 4.255-.416 1.07-.912 1.832-1.713 2.633s-1.565 1.297-2.635 1.714c-.806.314-2.02.686-4.253.788-2.414.111-3.14.133-9.256.133s-6.84-.022-9.254-.133zm-.19-41.42c-2.437.11-4.104.497-5.559 1.063a11.235 11.235 0 0 0-4.057 2.643c-1.275 1.273-2.057 2.551-2.642 4.058-.566 1.457-.953 3.122-1.064 5.561-.113 2.443-.138 3.224-.138 9.446s.026 7.003.138 9.446c.111 2.439.498 4.105 1.064 5.56.585 1.507 1.367 2.787 2.642 4.06 1.275 1.272 2.55 2.055 4.057 2.642 1.458.566 3.122.953 5.56 1.064 2.443.111 3.223.139 9.443.139s7-.026 9.443-.139c2.438-.11 4.103-.498 5.56-1.064 1.505-.587 2.782-1.37 4.057-2.643 1.274-1.273 2.055-2.552 2.641-4.058.567-1.457.955-3.122 1.064-5.561.111-2.445.137-3.224.137-9.446s-.026-7.003-.137-9.446c-.11-2.439-.497-4.105-1.064-5.56-.586-1.507-1.369-2.784-2.641-4.06-1.273-1.274-2.552-2.057-4.056-2.642-1.458-.566-3.123-.955-5.56-1.064-2.442-.111-3.222-.139-9.442-.139-6.22 0-7.002.026-9.445.14z"/></svg>