<svg viewBox="0 0 24 24" fill="currentColor" xmlns="http://www.w3.org/2000/svg"><path d="m3.05492878 13h-2.05492878v-2h2.05492878c.46114882-4.17161661 3.77345461-7.4839224 7.94507122-7.94507122v-2.05492878h2v2.05492878c4.1716166.46114882 7.4839224 3.77345461 7.9450712 7.94507122h2.0549288v2h-2.0549288c-.4611488 4.1716166-3.7734546 7.4839224-7.9450712 7.9450712v2.0549288h-2v-2.0549288c-4.17161661-.4611488-7.4839224-3.7734546-7.94507122-7.9450712zm8.94507122-8c-3.86599325 0-7 3.13400675-7 7 0 3.8659932 3.13400675 7 7 7 3.8659932 0 7-3.1340068 7-7 0-3.86599325-3.1340068-7-7-7zm0 3c2.209139 0 4 1.790861 4 4s-1.790861 4-4 4-4-1.790861-4-4 1.790861-4 4-4zm0 2c-1.1045695 0-2 .8954305-2 2s.8954305 2 2 2 2-.8954305 2-2-.8954305-2-2-2z" fill-rule="evenodd"/></svg>
