<svg xmlns="http://www.w3.org/2000/svg" fill="none" viewBox="0 0 169 43"><mask id="a" width="169" height="43" x="0" y="0" maskUnits="userSpaceOnUse" style="mask-type:luminance"><path fill="#fff" d="M169 0H0v43h169V0Z"/></mask><g mask="url(#a)"><path fill="#fff" d="M35.02 32.057c.045-.49.207-.964.471-1.438a4.1 4.1 0 0 1 .927-1.142c.941.638 2 1.172 3.148 1.602a9.7 9.7 0 0 0 3.412.637c1.353 0 2.412-.296 3.162-.89.75-.593 1.148-1.364 1.148-2.298 0-.815-.265-1.542-.81-2.135-.529-.608-1.279-1.127-2.25-1.527l-3.927-1.66c-1.368-.594-2.456-1.335-3.265-2.24-.81-.904-1.206-2.06-1.206-3.455 0-1.171.309-2.239.912-3.188.603-.963 1.47-1.734 2.559-2.283 1.103-.563 2.383-.845 3.839-.845 1.338 0 2.603.178 3.795.534 1.191.34 2.206.726 3.059 1.156a3.754 3.754 0 0 1-.353 1.438c-.22.49-.5.875-.853 1.187a16.565 16.565 0 0 0-2.81-1.083c-1-.311-1.926-.46-2.765-.46-1.235 0-2.206.312-2.941.92-.736.608-1.089 1.379-1.089 2.283 0 .756.265 1.364.78 1.839.53.474 1.206.89 2.03 1.23l3.883 1.632c.912.385 1.735.86 2.47 1.438a6.63 6.63 0 0 1 1.766 2.031c.44.786.647 1.661.647 2.67 0 1.245-.294 2.372-.868 3.35-.574.994-1.456 1.765-2.633 2.343-1.177.564-2.662.86-4.456.86-1.354 0-2.721-.222-4.104-.652-1.368-.49-2.604-1.098-3.677-1.854Zm20.313-17.155c0-.727.118-1.246.338-1.587.236-.326.692-.49 1.368-.49h1.192l.206.208v17.23c0 .43.102.771.294 1.038.206.252.544.386 1.03.386h2.308c.177.489.265 1.023.265 1.63 0 .12 0 .238-.015.356 0 .119-.014.238-.044.327a25.378 25.378 0 0 1-3.589.237c-1.073 0-1.912-.267-2.5-.816-.574-.548-.868-1.364-.868-2.446V14.902h.015Zm7.178 2.935a4.935 4.935 0 0 1 0 2.388l-5.251-.06-4.295.06a5.364 5.364 0 0 1-.132-1.201c0-.371.044-.771.132-1.187l4.31.09 5.236-.09ZM74.013 33.57c-.486 1.69-1 3.099-1.574 4.24-.559 1.157-1.294 2.017-2.177 2.595-.882.578-2.03.875-3.442.875-.5 0-1.044-.06-1.647-.163a8.973 8.973 0 0 1-1.383-.341c-.03-.386.015-.8.162-1.26.147-.445.309-.801.53-1.053.264.089.617.178 1.059.267.44.089.882.133 1.309.133.75 0 1.368-.178 1.868-.534.5-.34.912-.83 1.235-1.468.338-.622.633-1.364.883-2.224l.117-.385c-.647-.03-1.176-.163-1.544-.4-.382-.238-.677-.698-.883-1.35l-4.324-14.398a5.314 5.314 0 0 1 1.03-.355 3.55 3.55 0 0 1 .897-.134c.368 0 .691.104.956.297.265.192.485.578.647 1.156l2.265 7.696c.162.519.324 1.082.471 1.675.147.593.294 1.172.441 1.735.147.564.265 1.053.353 1.483.044.148.147.237.31.237l3.662-14.042c.205-.044.426-.074.676-.103.25-.015.486-.03.72-.03.28 0 .56.015.84.044.279.03.543.09.793.178l.118.178-4.368 15.45Zm12.958-1.884c.176.475.265 1.009.265 1.632 0 .118 0 .237-.015.355 0 .12-.015.238-.044.327-.353.059-.794.103-1.31.163-.514.06-.97.089-1.382.089-1.015 0-1.794-.267-2.338-.816-.53-.548-.795-1.364-.795-2.446V10.112l.192-.207h1.206c.676 0 1.132.163 1.353.504.235.326.353.86.353 1.586v18.253c0 .49.103.845.309 1.083.22.237.544.355.956.355h1.25Zm4.471-4.7V24.63h8.134v-.43c0-.786-.117-1.513-.338-2.18-.22-.667-.574-1.201-1.074-1.601-.485-.4-1.132-.594-1.941-.594-1.147 0-2.015.49-2.589 1.468-.573.964-.868 2.284-.868 3.974v.994c0 1.067.103 2.031.324 2.876.235.845.618 1.513 1.177 2.002.559.49 1.338.726 2.353.726.838 0 1.632-.118 2.397-.355a15.927 15.927 0 0 0 2.192-.92c.265.252.5.579.677.994.191.4.294.756.338 1.082-.78.564-1.692 1.008-2.78 1.35a10.765 10.765 0 0 1-3.295.504c-1.28 0-2.338-.238-3.206-.697-.853-.475-1.545-1.098-2.06-1.898a7.853 7.853 0 0 1-1.088-2.729 15.16 15.16 0 0 1-.323-3.202c0-1.631.25-3.1.75-4.374.515-1.29 1.265-2.314 2.265-3.055 1-.741 2.25-1.112 3.736-1.112 1.397 0 2.588.311 3.544.949.957.623 1.677 1.468 2.177 2.535.486 1.053.736 2.24.736 3.544 0 .504-.015.95-.044 1.32-.03.356-.089.756-.177 1.201H91.442v-.015Zm13.929 5.071c.044-.49.206-.964.471-1.438.279-.49.588-.86.927-1.142.941.638 2 1.172 3.147 1.602a9.701 9.701 0 0 0 3.413.637c1.353 0 2.412-.296 3.162-.89.75-.593 1.147-1.364 1.147-2.298 0-.815-.265-1.542-.809-2.135-.529-.608-1.279-1.127-2.25-1.527l-3.942-1.66c-1.368-.594-2.456-1.335-3.265-2.24-.809-.904-1.206-2.06-1.206-3.455 0-1.171.308-2.239.911-3.188.604-.963 1.471-1.734 2.56-2.283 1.103-.563 2.382-.845 3.839-.845 1.338 0 2.603.178 3.794.534 1.192.34 2.207.726 3.06 1.156a3.77 3.77 0 0 1-.353 1.438c-.221.49-.5.875-.853 1.187a16.566 16.566 0 0 0-2.81-1.083c-1-.311-1.926-.46-2.765-.46-1.235 0-2.206.312-2.942.92-.735.608-1.088 1.379-1.088 2.283 0 .756.265 1.364.78 1.839.529.474 1.206.89 2.029 1.23l3.883 1.632c.912.385 1.736.86 2.471 1.438a6.618 6.618 0 0 1 1.765 2.031c.442.786.648 1.661.648 2.67 0 1.245-.295 2.372-.868 3.35-.574.994-1.456 1.765-2.633 2.343-1.177.564-2.662.86-4.457.86-1.353 0-2.721-.222-4.103-.652-1.368-.49-2.589-1.098-3.663-1.854Zm26.814 1.513c-.486 1.69-1.001 3.099-1.574 4.24-.559 1.157-1.295 2.017-2.177 2.595-.883.578-2.03.875-3.442.875-.5 0-1.044-.06-1.647-.163a9.013 9.013 0 0 1-1.383-.341 3.28 3.28 0 0 1 .162-1.26c.147-.445.309-.801.53-1.053a9.02 9.02 0 0 0 1.059.267 6.64 6.64 0 0 0 1.309.133c.75 0 1.367-.178 1.868-.534.5-.34.912-.83 1.235-1.468.338-.622.633-1.364.883-2.224l.117-.385c-.647-.03-1.176-.163-1.544-.4-.383-.238-.677-.698-.883-1.35l-4.324-14.398a5.308 5.308 0 0 1 1.03-.355c.338-.09.632-.134.897-.134.368 0 .691.104.956.297.265.192.485.578.647 1.156l2.265 7.696c.162.519.324 1.082.471 1.675.147.593.294 1.172.441 1.735.147.564.265 1.053.353 1.483.044.148.147.237.309.237l3.662-14.042c.206-.044.427-.074.677-.103.25-.015.485-.03.721-.03.279 0 .559.015.838.044.28.03.544.09.794.178l.118.178-4.368 15.45Zm8.766-15.836c.676 0 1.132.207 1.382.608.265.4.398.949.398 1.675v14.086a8.01 8.01 0 0 1-1.574.134 8.597 8.597 0 0 1-1.618-.134V17.941l.206-.207h1.206Zm11.355 12.959c0 .563.029 1.112.103 1.616.073.504.206.95.412 1.32a3.228 3.228 0 0 1-.897.49 3.089 3.089 0 0 1-1.104.192c-.617 0-1.059-.163-1.323-.504-.25-.356-.383-.86-.383-1.542v-8.526c0-1.142-.147-1.957-.426-2.476-.28-.52-.839-.771-1.663-.771-.573 0-1.191.133-1.838.415a6.547 6.547 0 0 0-1.839 1.142 6.18 6.18 0 0 0-1.397 1.705v-3.129c.735-.86 1.633-1.572 2.692-2.15a6.91 6.91 0 0 1 3.383-.89c1.029 0 1.853.238 2.485.727.633.474 1.089 1.112 1.383 1.928.294.8.441 1.705.441 2.698v7.755h-.029Zm13.635-6.643a6.768 6.768 0 0 0-.192-1.987 2.867 2.867 0 0 0-.897-1.527c-.441-.4-1.059-.593-1.882-.593-1.059 0-1.883.519-2.501 1.542-.618 1.038-.912 2.565-.912 4.611 0 2.002.338 3.455 1 4.39.677.919 1.604 1.378 2.795 1.378.765 0 1.471-.178 2.133-.533a14.99 14.99 0 0 0 1.882-1.172c.28.178.559.46.839.845.264.371.456.742.544 1.098-.735.726-1.603 1.304-2.618 1.764-1 .445-2.089.653-3.251.653s-2.162-.223-3-.683a5.911 5.911 0 0 1-2.059-1.853 8.421 8.421 0 0 1-1.177-2.699 13.447 13.447 0 0 1-.383-3.202c0-2.017.324-3.663.986-4.938.647-1.275 1.5-2.21 2.53-2.802 1.044-.608 2.133-.905 3.28-.905 1 0 1.868.148 2.603.46.736.311 1.353.697 1.824 1.186.485.49.853 1.008 1.074 1.601a4.35 4.35 0 0 1 .353 1.676c0 .534-.118.979-.368 1.32-.25.326-.677.489-1.265.489-.25 0-.471-.015-.691-.03a5.17 5.17 0 0 1-.647-.089Z"/><path fill="url(#b)" d="M14.562 9.193C7.369 8.318.867 13.167.043 19.988c-.823 6.865 9.56 22.152 9.664 22.3l.044.074c.397.756 1.088.846 1.647.193l.074-.06c.147-.118 13.811-12.41 14.65-19.35.808-6.82-4.37-13.077-11.562-13.952Zm7.883 13.478c-.441 3.722-6.957 10.884-11.281 14.843-3.265-4.908-7.899-13.449-7.457-17.141.588-4.878 5.25-8.333 10.428-7.696 5.163.623 8.884 5.116 8.31 9.994Z"/><path fill="url(#c)" d="M25.725 2.876c-.044-.608-.53-.874-1.059-.593 0 0-6.09 3.218-8.428 5.902.75.178 1.486.4 2.177.682.97-.92 2.736-2.254 5.354-3.722.485 3.648.368 6.331.073 7.547a13.218 13.218 0 0 1 1.56 2.165c.058-.089.117-.178.176-.282 1.515-2.757.147-11.699.147-11.699Z"/><path fill="url(#d)" d="M2.824 11.313c-.132-1.245.103-3.914 1.044-7.458 2.398 1.78 3.986 3.336 4.84 4.374a16.22 16.22 0 0 1 2.25-.385C8.972 4.878 3.354.904 3.354.904c-.5-.355-1-.148-1.133.445 0 0-2.5 8.674-1.368 11.625.044.104.088.193.133.282a15.278 15.278 0 0 1 1.838-1.943Z"/></g><defs><linearGradient id="b" x1="10.409" x2="12.584" y1="43.772" y2="5.706" gradientUnits="userSpaceOnUse"><stop stop-color="#FCAB46"/><stop offset="1" stop-color="#F9674F"/></linearGradient><linearGradient id="c" x1="20.232" x2="21.026" y1="15.149" y2=".902" gradientUnits="userSpaceOnUse"><stop stop-color="#FA7C4C"/><stop offset="1" stop-color="#F9664F"/></linearGradient><linearGradient id="d" x1="4.69" x2="5.438" y1="13.544" y2="-.527" gradientUnits="userSpaceOnUse"><stop stop-color="#FA7A4D"/><stop offset="1" stop-color="#F8654F"/></linearGradient></defs></svg>