<svg xmlns="http://www.w3.org/2000/svg" fill="none" viewBox="0 0 96 77"><path fill="url(#a)" d="M16.033 24.09h.295c2.755-.196 4.82-2.556 4.722-5.31-.197-2.755-2.558-4.82-5.312-4.722-2.754.098-4.82 2.557-4.721 5.311.098 2.656 2.36 4.722 5.016 4.722Zm-2.36-7.081c.492-.59 1.278-.984 2.065-.984h.197a3.065 3.065 0 0 1 3.05 3.05 3.065 3.065 0 0 1-3.05 3.049 3.064 3.064 0 0 1-3.05-3.05c0-.786.296-1.475.788-2.065Z"/><path fill="url(#b)" d="m83.312 18.584-26.263-1.476-.196-2.95c-.295-5.607-5.115-9.935-10.82-9.64L12.689 6.387c-5.607.295-9.935 5.213-9.64 10.82l1.87 33.442v.787c.688 5.115 5.016 8.951 10.13 8.951h.59l21.345-1.18v.59c-.295 5.606 3.934 10.524 9.64 10.82l33.442 1.967h.59c5.41 0 9.934-4.23 10.23-9.64l1.967-33.442c.393-5.705-3.935-10.525-9.541-10.918Zm-76.23-7.476a8.114 8.114 0 0 1 5.705-2.754L46.23 6.485c4.524-.295 8.459 3.246 8.754 7.77l.197 2.755-5.214-.295c-5.606-.295-10.524 3.934-10.82 9.64l-.59 9.344-9.344 10.524c-.196.295-.59.394-.983.492-.394 0-.689-.099-.984-.394l-7.672-6.885c-1.377-1.279-3.443-1.082-4.721.295l-7.968 8.951-1.77-31.475c-.197-2.263.59-4.427 1.967-6.099Zm8.558 47.213c-4.23.197-7.968-2.754-8.656-6.983L16.23 41.01c.196-.295.59-.393.983-.492.394 0 .689.099.984.394l7.672 6.885a3.78 3.78 0 0 0 2.46.885c.884 0 1.671-.492 2.261-1.082l7.673-8.656L37.18 57.24l-21.54 1.082Zm75.245-29.016-1.967 33.443c-.295 4.524-4.23 8.065-8.754 7.77l-33.443-1.967c-4.524-.295-8.065-4.23-7.77-8.754l1.967-33.443c.295-4.328 3.836-7.77 8.263-7.77h.491l33.443 1.967c4.623.295 8.066 4.23 7.77 8.754Z"/><path fill="url(#c)" d="M76.918 41.402 60.295 30.484c-2.065-1.377-4.82-.787-6.098 1.278-.394.689-.689 1.378-.689 2.164l-1.18 19.771c-.098 2.459 1.672 4.524 4.131 4.721h.295c.689 0 1.377-.197 1.968-.492l17.705-8.852a4.412 4.412 0 0 0 1.967-5.902 6.443 6.443 0 0 0-1.476-1.77Zm-1.377 5.901-17.705 8.853a2.723 2.723 0 0 1-1.278.295c-.394 0-.886-.197-1.18-.393-.69-.492-1.181-1.28-1.083-2.164l1.18-19.77c.099-.886.59-1.673 1.378-2.066.787-.394 1.672-.296 2.459.098l16.426 10.918c1.18.787 1.475 2.262.689 3.344a1.93 1.93 0 0 1-.886.886Z"/><defs><linearGradient id="a" x1="16.033" x2="5.997" y1="9.037" y2="19.076" gradientUnits="userSpaceOnUse"><stop stop-color="#F8674F"/><stop offset="1" stop-color="#FCA846"/></linearGradient><linearGradient id="b" x1="47.956" x2="-17.586" y1="-29.536" y2="56.958" gradientUnits="userSpaceOnUse"><stop stop-color="#F8674F"/><stop offset="1" stop-color="#FCA846"/></linearGradient><linearGradient id="c" x1="65.59" x2="36.997" y1="15.398" y2="41.849" gradientUnits="userSpaceOnUse"><stop stop-color="#F8674F"/><stop offset="1" stop-color="#FCA846"/></linearGradient></defs></svg>