<svg fill="currentColor" viewBox="0 0 24 24" xmlns="http://www.w3.org/2000/svg"><path d="m12.3023235 7.94519388-7.60622074 7.60439512c-.40515168.3583348-.65579441.8596445-.69610276 1.3182405v3.1351143l3.06398288.0018822c.53422402-.0378198 1.03150405-.2864478 1.43081034-.7432033l7.56190688-7.5619069zm1.4143833-1.41404382 3.7542069 3.75435214 2.3938804-2.39388039c.0866046-.08660434.1352585-.20406515.1352585-.32654233s-.0486539-.23993799-.1352594-.32654322l-3.1036689-3.1036798c-.0856359-.08631057-.2021888-.13485646-.3237743-.13485646s-.2381384.04854589-.3237743.13485646zm2.7206432-4.53115006c.6547382 0 1.2823759.26141978 1.7407568.7234227l3.1008991 3.10089911c.4616784.46167723.7210467 1.08784664.7210467 1.74075767 0 .65291104-.2593683 1.27908044-.7210458 1.74075678l-11.32149962 11.31791824c-.6984827.805738-1.68860715 1.3007763-2.82290718 1.378575h-5.1346v-1l.00324765-4.215028c.08519057-1.0544649.57541914-2.0349694 1.32324868-2.6938819l11.36889137-11.36879142c.4610044-.46379868 1.0879637-.72462818 1.7419623-.72462818z" fill-rule="evenodd"/></svg>
