<svg xmlns="http://www.w3.org/2000/svg" fill="currentColor" viewBox="0 0 24 24"><path fill-rule="evenodd" d="M12.302 7.945 4.696 15.55c-.405.358-.656.86-.696 1.318v3.135l3.064.002c.534-.038 1.031-.287 1.43-.743l7.563-7.562zm1.415-1.414 3.754 3.755 2.394-2.394a.462.462 0 0 0 0-.653L16.76 4.135a.456.456 0 0 0-.647 0zM16.437 2c.655 0 1.283.261 1.741.723l3.101 3.101a2.462 2.462 0 0 1 0 3.482L9.958 20.624c-.699.805-1.69 1.3-2.823 1.378H2v-1l.003-4.215c.085-1.054.576-2.035 1.323-2.694l11.37-11.368A2.456 2.456 0 0 1 16.436 2z"/></svg>