<svg viewBox="0 0 24 24" fill="currentColor" xmlns="http://www.w3.org/2000/svg">
<path id="Vector" fill-rule="evenodd" clip-rule="evenodd" d="M13.003 8.52715L5.37012 16.1575C4.86368 16.6054 4.55038 17.2321 4.49999 17.8053V20.4742L7.07996 20.4766C7.74774 20.4293 8.36934 20.1185 8.86847 19.5476L16.4458 11.9702L13.003 8.52715ZM14.771 6.75967L18.2136 10.2024L19.3309 9.08509C19.4392 8.97683 19.5 8.83001 19.5 8.67691C19.5 8.52382 19.4392 8.37699 19.3309 8.26873L16.7014 5.63914C16.5943 5.53125 16.4486 5.47057 16.2966 5.47057C16.1447 5.47057 15.999 5.53125 15.8919 5.63914L14.771 6.75967ZM16.2966 2.97058C17.1151 2.97058 17.8996 3.29735 18.4726 3.87486L21.0987 6.50097C21.6758 7.07807 22 7.86078 22 8.67691C22 9.49305 21.6758 10.2758 21.0987 10.8529L10.6969 21.2502C9.82375 22.2574 8.5861 22.8762 7.16823 22.9734H2V21.7234L2.00406 17.7047C2.11055 16.3866 2.72333 15.161 3.65811 14.3373L14.1192 3.87636C14.6954 3.29662 15.4791 2.97058 16.2966 2.97058Z"/>
</svg>
