<svg xmlns="http://www.w3.org/2000/svg" fill="currentColor" viewBox="0 0 15 15"><path fill-rule="evenodd" d="M6.734 3.191c.44.488.3 1.04-.088 1.563a4.09 4.09 0 0 1-.327.381c-.061.065-.11.114-.21.214l-.575.576c-.075.075.44 1.103 1.438 2.102.997.999 2.025 1.514 2.1 1.438l.576-.575c.316-.317.484-.47.714-.62.479-.315 1-.4 1.441-.007 1.438 1.03 2.252 1.66 2.65 2.075.779.808.677 2.051.005 2.76-.232.247-.528.542-.876.878-2.109 2.11-6.56.826-9.97-2.588-3.411-3.415-4.694-7.865-2.59-9.97.378-.385.502-.509.87-.872.685-.674 1.986-.78 2.777.001.416.411 1.08 1.264 2.065 2.644Zm3.974 6.76-.575.574c-.977.978-2.641.145-4.222-1.437C4.33 7.504 3.497 5.84 4.475 4.864a1617.861 1617.861 0 0 0 .759-.763c.068-.072.125-.136.17-.192-.874-1.217-1.468-1.978-1.788-2.294-.166-.164-.536-.134-.672 0a63.28 63.28 0 0 0-.858.859c-1.353 1.354-.317 4.947 2.587 7.854 2.903 2.905 6.495 3.942 7.858 2.578.344-.331.623-.611.838-.838.156-.165.184-.504.005-.69-.298-.31-1.028-.879-2.287-1.783a5.133 5.133 0 0 0-.38.355Z" clip-rule="evenodd"/></svg>