<svg viewBox="0 0 24 24" color="currentColor" xmlns="http://www.w3.org/2000/svg"><path d="m6.19306266 7h3.80693734v2h-7v-7h2v3.27034886c1.72510698-2.08783708 4.19576641-3.27034886 7-3.27034886 5.5228475 0 10 4.4771525 10 10-2 0 0 0-2 0 0-4.418278-3.581722-8-8-8-2.39362381 0-4.44646011 1.07869636-5.80693734 3zm11.61387464 10h-3.8069373v-2h7v7h-2v-3.2703489c-1.725107 2.0878371-4.1957664 3.2703489-7 3.2703489-5.5228475 0-10-4.4771525-10-10h2c0 4.418278 3.581722 8 8 8 2.3936238 0 4.4464601-1.0786964 5.8069373-3z" fill-rule="evenodd"/></svg>
