<svg  fill="currentColor" viewBox="0 0 24 24" xmlns="http://www.w3.org/2000/svg"><path d="m20.8733438 18.6798456-2.2171757 2.2171757-2.8378499-.7905518-.8115832.3347144-1.4568947 2.5578061h-3.1345739l-1.44882768-2.5665261-.81076359-.3399428-2.83758761.7807758-2.21611882-2.2161188.79055177-2.8378499-.33478347-.8117508-2.557737-1.457954v-3.13448l2.56757573-1.44879919.33990318-.81066908-.78077585-2.83758761 2.21527928-2.21527929 2.83786535.79165558.81087123-.33442072 1.45471978-2.56004309h3.1353779l1.4487992 2.56757573.8106691.33990318 2.8371197-.78064712 2.2187372 2.2155216-.7906823 2.83831843.3344974.8110571 2.5600431 1.45471978v3.1353779l-2.5673335 1.4486625-.3401979.812506zm-2.8924865-2.9720883.8718009-2.0821511 2.1473418-1.2116748v-.8036181l-2.1465522-1.2197576-.8593214-2.08360001.6616962-2.37529635-.56886-.56803562-2.382555.65557144-2.079948-.8720956-1.2115382-2.14709956h-.8036181l-1.2197576 2.1465522-2.08378587.85939809-2.37574945-.66274297-.56625793.56625794.65544271 2.38208716-.8720956 2.07994798-2.14709956 1.2115382v.8045161l2.14481829 1.2225833.85903534 2.0829063-.66182678 2.3757648.56743841.5674385 2.38208716-.6554428 2.07985348.872056 1.2115097 2.1461292h.8044222l1.2216226-2.1447492 2.0830739-.8591044 2.3757649.6618267.5684015-.5684015zm-5.9808573.2922427c-2.209139 0-4-1.790861-4-4s1.790861-4 4-4 4 1.790861 4 4-1.790861 4-4 4zm0-2c1.1045695 0 2-.8954305 2-2s-.8954305-2-2-2-2 .8954305-2 2 .8954305 2 2 2z" fill-rule="evenodd"/></svg>
