<svg viewBox="0 0 24 24" color="currentColor" xmlns="http://www.w3.org/2000/svg"><path d="m12 23c-6-2.6729242-9-5.3395908-9-8v-10c0-1 .5-1 2-2 .16179337-.10786225 3.56320917-2 7-2 2.9952495 0 5.5 1 7 2s2 1 2 2c.0264318.29131477 0 8.5 0 10 0 2.6666667-3 5.3333333-9 8zm7-8c0-.2303146.0005911-.6161985.0018395-1.2453127.0006025-.3036488.0018361-.8920912.0040383-1.9532633.0012807-.6319074.0023004-1.1741738.0031557-1.6916412.0036891-2.23214466.0027017-4.14796454.0005444-4.74049872-.3307327-.20545948-.846857-.52376927-1.1189783-.70518349-1.4762765-.98418436-3.6304212-1.66410059-5.8905996-1.66410059-2.1619131 0-4.97136475 1.05127735-5.89059961 1.66410059-.26950845.1796723-.77835652.49362389-1.10940039.69923411v9.6366653c0 1.5084521 2.22911083 3.568744 7.000926 5.8019938 4.7712326-2.2282587 6.999074-4.2877561 6.999074-5.8019938z" fill-rule="evenodd"/></svg>
