<svg xmlns="http://www.w3.org/2000/svg" fill="none" viewBox="0 0 143 36"><g clip-path="url(#a)"><mask id="b" width="143" height="36" x="0" y="0" maskUnits="userSpaceOnUse" style="mask-type:luminance"><path fill="#fff" d="M142.634 0H0v36h142.634V0Z"/></mask><g mask="url(#b)"><path fill="#030F3F" d="M29.559 26.837c.037-.41.173-.807.397-1.204.236-.41.496-.72.782-.956.794.534 1.688.981 2.657 1.341.968.36 1.936.534 2.88.534 1.142 0 2.035-.248 2.668-.745.634-.497.969-1.142.969-1.924 0-.683-.224-1.291-.683-1.788-.447-.509-1.08-.943-1.9-1.278l-3.314-1.39c-1.154-.497-2.073-1.118-2.756-1.875-.683-.758-1.018-1.726-1.018-2.893 0-.98.261-1.874.77-2.669.509-.806 1.241-1.452 2.16-1.911.931-.472 2.011-.708 3.24-.708 1.13 0 2.197.15 3.203.447 1.005.286 1.862.608 2.582.968a3.123 3.123 0 0 1-.298 1.204 2.85 2.85 0 0 1-.72.993 14.05 14.05 0 0 0-2.371-.906c-.844-.26-1.626-.384-2.334-.384-1.043 0-1.862.26-2.483.77-.62.508-.918 1.154-.918 1.91 0 .634.223 1.143.658 1.54.447.397 1.018.745 1.713 1.03l3.277 1.366c.77.323 1.465.72 2.086 1.204a5.562 5.562 0 0 1 1.49 1.7c.372.659.545 1.391.545 2.235 0 1.043-.248 1.986-.732 2.806-.484.832-1.229 1.477-2.222 1.961-.993.472-2.247.72-3.761.72-1.143 0-2.297-.186-3.464-.546-1.154-.41-2.197-.919-3.103-1.552Zm17.145-14.365c0-.608.1-1.042.286-1.328.198-.273.583-.41 1.154-.41h1.006l.173.174v14.425c0 .36.087.646.249.869.173.211.459.323.869.323h1.949c.149.41.223.856.223 1.365 0 .1 0 .199-.012.298a.91.91 0 0 1-.038.273 21.57 21.57 0 0 1-3.029.199c-.906 0-1.613-.224-2.11-.683-.484-.46-.732-1.142-.732-2.048V12.472h.012Zm6.058 2.458a4.102 4.102 0 0 1 0 1.999l-4.432-.05-3.624.05a4.458 4.458 0 0 1-.112-1.006c0-.31.037-.645.111-.993l3.638.075 4.419-.075Zm9.705 13.173c-.41 1.415-.844 2.595-1.328 3.55-.472.969-1.093 1.689-1.838 2.173-.745.484-1.713.733-2.904.733-.422 0-.882-.05-1.39-.137a7.62 7.62 0 0 1-1.168-.286c-.024-.322.013-.67.137-1.055.124-.372.26-.67.447-.881.223.074.521.149.893.223.373.075.745.112 1.105.112.633 0 1.155-.149 1.577-.447.422-.285.77-.695 1.043-1.229a9.375 9.375 0 0 0 .745-1.862l.099-.323c-.546-.024-.993-.136-1.304-.335-.322-.198-.57-.583-.745-1.13l-3.65-12.053c.299-.137.597-.236.87-.298.285-.075.534-.112.757-.112.31 0 .584.087.807.248.223.162.41.485.546.969l1.912 6.442c.136.435.273.907.397 1.403.124.497.248.98.373 1.453.124.471.223.881.297 1.241.038.124.125.199.261.199l3.091-11.756c.174-.037.36-.062.571-.087a6.76 6.76 0 0 1 1.316.012c.236.025.46.075.67.15l.1.148-3.687 12.935Zm10.939-1.578c.15.397.224.844.224 1.366 0 .099 0 .198-.013.297 0 .1-.012.199-.037.274-.298.05-.67.086-1.105.136-.434.05-.82.075-1.167.075-.856 0-1.514-.224-1.974-.683-.447-.46-.67-1.142-.67-2.048V8.462l.161-.173h1.018c.571 0 .956.137 1.142.422.2.273.298.72.298 1.328v15.282c0 .41.087.707.261.906.186.199.46.298.807.298h1.055Zm3.774-3.934v-1.973h6.864v-.36c0-.658-.1-1.267-.286-1.825-.186-.559-.484-1.006-.906-1.34-.41-.336-.956-.497-1.638-.497-.969 0-1.701.41-2.185 1.229-.484.806-.733 1.911-.733 3.326v.832c0 .894.087 1.7.273 2.408.199.708.522 1.267.993 1.676.472.41 1.13.609 1.987.609.707 0 1.378-.1 2.023-.298a13.5 13.5 0 0 0 1.85-.77c.223.211.422.484.57.832.162.335.25.633.286.906-.658.472-1.427.844-2.346 1.13a9.156 9.156 0 0 1-2.78.422c-1.08 0-1.974-.199-2.707-.584-.72-.397-1.303-.918-1.738-1.589a6.545 6.545 0 0 1-.918-2.284 12.593 12.593 0 0 1-.273-2.681c0-1.366.21-2.595.633-3.662.434-1.08 1.067-1.937 1.912-2.558.844-.62 1.899-.93 3.153-.93 1.179 0 2.184.26 2.991.794a5.012 5.012 0 0 1 1.838 2.123c.41.881.62 1.874.62 2.966 0 .423-.012.795-.037 1.105a9.006 9.006 0 0 1-.149 1.006h-9.298v-.013Zm11.754 4.246c.037-.41.173-.807.397-1.204.236-.41.496-.72.782-.956.794.534 1.688.981 2.656 1.341a8.25 8.25 0 0 0 2.88.534c1.142 0 2.036-.248 2.67-.745.632-.497.968-1.142.968-1.924 0-.683-.224-1.291-.683-1.788-.447-.509-1.08-.943-1.9-1.278l-3.326-1.39c-1.155-.497-2.073-1.118-2.756-1.875-.683-.758-1.018-1.726-1.018-2.893 0-.98.26-1.874.77-2.669.509-.806 1.241-1.452 2.16-1.911.93-.472 2.01-.708 3.24-.708 1.13 0 2.197.15 3.202.447 1.006.286 1.862.608 2.582.968a3.102 3.102 0 0 1-.298 1.204c-.186.41-.422.733-.72.993-.72-.36-1.514-.657-2.37-.906-.845-.26-1.627-.384-2.334-.384-1.043 0-1.862.26-2.483.77-.62.508-.919 1.154-.919 1.91 0 .634.224 1.143.658 1.54.447.397 1.018.745 1.713 1.03l3.278 1.366a9.06 9.06 0 0 1 2.085 1.204 5.567 5.567 0 0 1 1.49 1.7c.372.659.546 1.391.546 2.235 0 1.043-.248 1.986-.732 2.806-.485.832-1.229 1.477-2.222 1.961-.994.472-2.247.72-3.762.72a11.71 11.71 0 0 1-3.463-.546c-1.155-.41-2.185-.919-3.091-1.552Zm22.631 1.266c-.41 1.415-.845 2.595-1.329 3.55-.471.969-1.092 1.689-1.837 2.173-.745.484-1.713.733-2.905.733-.422 0-.881-.05-1.39-.137a7.594 7.594 0 0 1-1.167-.286 2.7 2.7 0 0 1 .137-1.055c.124-.372.26-.67.446-.881a7.8 7.8 0 0 0 .894.223 5.66 5.66 0 0 0 1.105.112c.633 0 1.154-.149 1.577-.447.422-.285.769-.695 1.042-1.229a9.345 9.345 0 0 0 .745-1.862l.099-.323c-.546-.024-.993-.136-1.303-.335-.323-.198-.571-.583-.745-1.13l-3.649-12.053c.297-.137.595-.236.869-.298a3.01 3.01 0 0 1 .757-.112c.31 0 .583.087.807.248.223.162.409.485.546.969l1.912 6.442c.136.435.273.907.397 1.403.124.497.248.98.372 1.453.124.471.224.881.298 1.241.037.124.124.199.261.199l3.091-11.756c.174-.037.36-.062.571-.087a6.77 6.77 0 0 1 1.316.012c.236.025.459.075.67.15l.099.148-3.686 12.935Zm7.396-13.256c.571 0 .956.174 1.167.509.224.335.335.794.335 1.403v11.793a6.799 6.799 0 0 1-1.328.111c-.521 0-.981-.037-1.365-.111V15.02l.173-.174h1.018Zm9.584 10.85c0 .471.025.93.087 1.353.062.422.174.794.347 1.104a2.713 2.713 0 0 1-.757.41 2.622 2.622 0 0 1-.931.161c-.521 0-.894-.136-1.117-.422-.211-.298-.323-.72-.323-1.29v-7.139c0-.955-.124-1.638-.36-2.073-.236-.434-.708-.645-1.403-.645-.484 0-1.005.111-1.552.347a5.524 5.524 0 0 0-1.551.956c-.484.41-.882.894-1.18 1.428v-2.62a7.966 7.966 0 0 1 2.272-1.8 5.869 5.869 0 0 1 2.855-.744c.869 0 1.565.198 2.098.608.534.397.919.931 1.167 1.614.249.67.373 1.427.373 2.259v6.492h-.025Zm11.51-5.563a5.629 5.629 0 0 0-.161-1.663 2.399 2.399 0 0 0-.758-1.279c-.372-.335-.893-.496-1.589-.496-.893 0-1.589.434-2.11 1.29-.521.87-.77 2.148-.77 3.861 0 1.676.286 2.893.845 3.675.571.77 1.353 1.154 2.358 1.154.646 0 1.242-.149 1.8-.447.571-.297 1.093-.62 1.589-.98.236.149.472.385.708.707.223.31.385.621.459.919-.621.608-1.353 1.092-2.21 1.477-.844.373-1.762.546-2.743.546-.981 0-1.825-.186-2.532-.57a4.973 4.973 0 0 1-1.738-1.552 7.051 7.051 0 0 1-.994-2.26 11.173 11.173 0 0 1-.322-2.681c0-1.688.273-3.066.831-4.134.547-1.067 1.267-1.85 2.136-2.346a5.437 5.437 0 0 1 2.768-.757c.844 0 1.576.124 2.197.384.621.261 1.142.584 1.539.994.41.41.72.844.907 1.34.198.472.298.944.298 1.403 0 .447-.1.82-.311 1.105-.211.273-.571.41-1.067.41-.211 0-.398-.013-.584-.025a4.413 4.413 0 0 1-.546-.075Z"/><path fill="url(#c)" d="M12.292 7.695C6.222 6.962.734 11.022.039 16.732c-.695 5.748 8.07 18.546 8.156 18.67l.037.063c.336.633.919.707 1.39.16l.063-.049c.124-.1 11.656-10.39 12.364-16.2.683-5.71-3.687-10.949-9.757-11.681Zm6.653 11.284c-.372 3.116-5.871 9.112-9.52 12.426-2.757-4.109-6.667-11.26-6.295-14.35.497-4.084 4.432-6.977 8.802-6.443 4.357.521 7.498 4.283 7.013 8.367Z"/><path fill="url(#d)" d="M21.714 2.407c-.037-.509-.447-.732-.894-.497 0 0-5.14 2.694-7.113 4.941.633.15 1.254.335 1.837.571.82-.77 2.31-1.887 4.519-3.116.41 3.054.31 5.301.062 6.319.497.559.943 1.167 1.316 1.812.05-.074.1-.149.149-.236 1.278-2.309.124-9.794.124-9.794Z"/><path fill="url(#e)" d="M2.385 9.47c-.112-1.043.086-3.277.88-6.244C5.29 4.716 6.63 6.019 7.35 6.888a13.79 13.79 0 0 1 1.9-.323C7.573 4.082 2.83.755 2.83.755c-.422-.297-.844-.124-.955.373 0 0-2.11 7.262-1.155 9.732.037.087.075.162.112.236.472-.596.993-1.13 1.552-1.626Z"/></g></g><defs><linearGradient id="c" x1="8.787" x2="10.593" y1="36.644" y2="4.774" gradientUnits="userSpaceOnUse"><stop stop-color="#FCAB46"/><stop offset="1" stop-color="#F9674F"/></linearGradient><linearGradient id="d" x1="17.078" x2="17.737" y1="12.681" y2=".753" gradientUnits="userSpaceOnUse"><stop stop-color="#FA7C4C"/><stop offset="1" stop-color="#F9664F"/></linearGradient><linearGradient id="e" x1="3.959" x2="4.581" y1="11.337" y2="-.443" gradientUnits="userSpaceOnUse"><stop stop-color="#FA7A4D"/><stop offset="1" stop-color="#F8654F"/></linearGradient><clipPath id="a"><path fill="#fff" d="M0 0h142.634v36H0z"/></clipPath></defs></svg>