<svg viewBox="0 0 24 24" fill="currentColor" xmlns="http://www.w3.org/2000/svg"><path d="m6.03531778 18.739764c1.58798201 1.406412 3.67662147 2.260236 5.96468222 2.260236 2.2880608 0 4.3767002-.853824 5.9646822-2.260236-.2926828-1.052415-2.3952999-1.739764-5.9646822-1.739764-3.56938226 0-5.67199935.687349-5.96468222 1.739764zm-1.4348142-1.6151165c1.12544773-1.4865835 3.77009831-2.1246475 7.39949642-2.1246475 3.6293981 0 6.2740487.638064 7.3994964 2.1246475 1.0091215-1.4543292 1.6005036-3.220426 1.6005036-5.1246475 0-4.97056275-4.0294373-9-9-9-4.97056275 0-9 4.02943725-9 9 0 1.9042215.59138213 3.6703183 1.60050358 5.1246475zm7.39949642 5.8753525c-6.07513225 0-11-4.9248678-11-11 0-6.07513225 4.92486775-11 11-11 6.0751322 0 11 4.92486775 11 11 0 6.0751322-4.9248678 11-11 11zm-4-13c0-2.24424064 1.57909957-4 4-4 2.4141948 0 4 1.92157821 4 4.2 0 3.279614-1.7819139 4.8-4 4.8-2.23913618 0-4-1.5726257-4-5zm2 0c0 2.2692568.8182108 3 2 3 1.1777063 0 2-.7016073 2-2.8 0-1.24958264-.7843432-2.2-2-2.2-1.2662613 0-2 .81582479-2 2z" fill-rule="evenodd"/></svg>
