<svg  viewBox="0 0 30 30"  xmlns="http://www.w3.org/2000/svg"><g fill="currentColor"><path d="m22 7v-3a2 2 0 0 0 -2-2h-16a2.006 2.006 0 0 0 -2 2v22a2.006 2.006 0 0 0 2 2h16a2.006 2.006 0 0 0 2-2 1 1 0 0 1 2 0 3.995 3.995 0 0 1 -4 4h-16a4 4 0 0 1 -4-4v-22a4 4 0 0 1 4-4h16a4 4 0 0 1 4 4v3a1 1 0 0 1 -2 0z"/><circle cx="5" cy="24" r="1"/><path d="m19.119 25h-10.238a1.008 1.008 0 0 1 0-2h10.237a1.008 1.008 0 0 1 0 2z"/><circle cx="5" cy="7" r="1"/><path d="m19.119 8h-10.238a.947.947 0 0 1 -.881-1 .95.95 0 0 1 .881-1h10.237a.949.949 0 0 1 .882 1 .95.95 0 0 1 -.881 1z"/><circle cx="5" cy="19.75" r="1"/><circle cx="5" cy="11.25" r="1"/><circle cx="5" cy="15.5" r="1"/><path d="m29.426 23.1-2.813-2.813a1.937 1.937 0 0 0 -1.412-.576 1.768 1.768 0 0 0 -.507.059l-.9-.9a6.371 6.371 0 0 0 1.24-3.809 6.453 6.453 0 0 0 -10.77-4.811h-5.383a1.008 1.008 0 0 0 0 2h3.876a6.425 6.425 0 0 0 -.621 2.25h-3.255a1.008 1.008 0 0 0 0 2h3.395a6.412 6.412 0 0 0 1 2.25h-4.395a1.008 1.008 0 0 0 0 2h6.631a6.455 6.455 0 0 0 6.864-.474l.9.905a2.013 2.013 0 0 0 .524 1.919l2.813 2.813a1.989 1.989 0 0 0 2.813-2.813zm-10.857-3.57a4.477 4.477 0 0 1 -3.7-1.971h3.541a2.138 2.138 0 0 0 2.13-2.13v-.48a2.14 2.14 0 0 0 -2.13-2.14h-3.687a4.453 4.453 0 0 1 3.846-2.225 4.565 4.565 0 0 1 .589.038 4.474 4.474 0 0 1 -.589 8.908z"/></g></svg>