<svg viewBox="0 0 220 165" fill="none" xmlns="http://www.w3.org/2000/svg">
<circle cx="26" cy="20" r="8" fill="#F2F4F7"/>
<circle cx="198" cy="126" r="6" fill="#F2F4F7"/>
<circle cx="25" cy="138" r="10" fill="#F2F4F7"/>
<circle cx="210" cy="38" r="10" fill="#F2F4F7"/>
<circle cx="191" cy="11" r="7" fill="#F2F4F7"/>
<g clip-path="url(#clip0_29203_25316)">
<path d="M176.459 30.2109H47.7478C46.0114 30.212 44.3463 30.9023 43.1184 32.1302C41.8906 33.358 41.2003 35.0231 41.1992 36.7595V154.854C41.2003 156.59 41.8906 158.255 43.1184 159.483C44.3463 160.711 46.0114 161.401 47.7478 161.402H176.459C178.196 161.401 179.861 160.711 181.089 159.483C182.317 158.255 183.008 156.59 183.009 154.854V36.7595C183.008 35.023 182.317 33.3578 181.089 32.1299C179.861 30.902 178.196 30.2118 176.459 30.2109Z" fill="#C6C6C6"/>
<path d="M167.984 120.369H56.2205C52.604 120.369 49.6719 117.437 49.6719 113.821V9.47829C49.6719 5.86182 52.604 2.92969 56.2205 2.92969H167.984C171.601 2.92969 174.533 5.86182 174.533 9.47829V113.821C174.533 117.437 171.601 120.369 167.984 120.369Z" fill="#F9F9F9"/>
<path d="M51.7452 115.893V11.5516C51.7452 7.93514 54.6773 5.00301 58.2938 5.00301H170.058C171.335 5.00301 172.523 5.37426 173.529 6.00653C172.372 4.16043 170.324 2.92969 167.984 2.92969H56.2205C52.604 2.92969 49.6719 5.86182 49.6719 9.47829V113.821C49.6719 116.161 50.9026 118.208 52.7487 119.366C52.1164 118.359 51.7452 117.171 51.7452 115.894V115.893Z" fill="url(#paint0_linear_29203_25316)"/>
<path d="M154.237 24.9727H69.9766V29.7746H154.237V24.9727ZM154.237 43.3079H69.9766V48.1098H154.237V43.3079ZM154.237 61.6473H69.9766V66.4492H154.237V61.6473ZM154.237 79.9826H69.9766V84.7852H154.237V79.9826Z" fill="white"/>
<path d="M80.0156 64.4844L101.189 85.6585H80.0156V64.4844Z" fill="url(#paint1_linear_29203_25316)"/>
<path d="M183.009 87.403V38.6854L174.535 30.2109V87.4024H183.009V87.403Z" fill="#C6C6C6"/>
<path d="M192.934 91.8098L183.805 156.438C183.348 159.669 180.583 162.071 177.32 162.071H46.8877C43.6249 162.071 40.8598 159.669 40.4033 156.438L28.0655 69.1094C27.509 65.167 30.5683 61.6445 34.5499 61.6445H74.8302C78.093 61.6445 80.8581 64.0458 81.3145 67.2762L82.9314 78.7126C83.3879 81.9436 86.153 84.3449 89.4158 84.3449H186.451C190.432 84.3449 193.492 87.8674 192.935 91.8098H192.934Z" fill="url(#paint2_linear_29203_25316)"/>
<path d="M160.587 133.244H63.6227C63.0912 133.243 62.578 133.049 62.1793 132.698C61.7806 132.347 61.5237 131.862 61.4567 131.335L60.2435 121.73C60.205 121.422 60.2322 121.11 60.3235 120.814C60.4147 120.518 60.5678 120.245 60.7726 120.013C60.9774 119.781 61.2293 119.595 61.5115 119.467C61.7937 119.34 62.0998 119.274 62.4095 119.273H161.8C162.109 119.274 162.415 119.34 162.698 119.467C162.98 119.595 163.232 119.781 163.437 120.013C163.641 120.245 163.795 120.518 163.886 120.814C163.977 121.11 164.004 121.422 163.966 121.73L162.753 131.335C162.686 131.862 162.429 132.347 162.03 132.698C161.631 133.049 161.118 133.243 160.587 133.244Z" fill="#D5D5D5"/>
</g>
<defs>
<linearGradient id="paint0_linear_29203_25316" x1="115.942" y1="65.4823" x2="33.1245" y2="-17.3362" gradientUnits="userSpaceOnUse">
<stop stop-color="white"/>
</linearGradient>
<linearGradient id="paint1_linear_29203_25316" x1="94.0048" y1="89.0558" x2="68.4115" y2="63.4633" gradientUnits="userSpaceOnUse">
<stop stop-color="#C2CECE" stop-opacity="0"/>
<stop offset="0.179" stop-color="#AFBCBC" stop-opacity="0.179"/>
<stop offset="1" stop-color="#5B6A6A"/>
</linearGradient>
<linearGradient id="paint2_linear_29203_25316" x1="110.5" y1="61.6445" x2="110.5" y2="162.071" gradientUnits="userSpaceOnUse">
<stop stop-color="#EEF0F4"/>
<stop offset="0.927" stop-color="#E4E4E4"/>
</linearGradient>
<clipPath id="clip0_29203_25316">
<rect width="165" height="165" fill="white" transform="translate(28)"/>
</clipPath>
</defs>
</svg>
