<?xml version="1.0" standalone="no"?>
<!DOCTYPE svg PUBLIC "-//W3C//DTD SVG 20010904//EN"
 "http://www.w3.org/TR/2001/REC-SVG-20010904/DTD/svg10.dtd">
<svg version="1.0" xmlns="http://www.w3.org/2000/svg"
 width="260.000000pt" height="260.000000pt" viewBox="0 0 260.000000 260.000000"
 preserveAspectRatio="xMidYMid meet">
<metadata>
Created by potrace 1.14, written by Peter Selinger 2001-2017
</metadata>
<g transform="translate(0.000000,260.000000) scale(0.100000,-0.100000)"
fill="#000000" stroke="none">
<path d="M772 2491 c-13 -8 -43 -129 -72 -296 -24 -135 -33 -323 -18 -375 l10
-35 18 25 c10 14 30 38 44 53 14 15 26 31 27 35 1 4 2 34 4 67 6 128 37 320
56 339 8 9 169 -144 215 -205 20 -27 21 -27 78 -15 l58 11 -45 60 c-50 68
-160 181 -259 266 -78 67 -100 80 -116 70z"/>
<path d="M1757 2330 c-120 -80 -297 -230 -297 -250 0 -4 23 -15 50 -24 l50
-17 71 60 c75 63 189 144 195 139 15 -16 26 -326 14 -384 -6 -25 0 -42 34 -94
l41 -63 13 34 c33 80 35 337 6 589 -8 71 -13 87 -29 94 -9 3 -67 -29 -148 -84z"/>
<path d="M1308 2025 c-2 -1 -37 -5 -78 -8 -41 -3 -95 -13 -120 -22 -25 -9 -50
-18 -56 -19 -48 -8 -199 -123 -254 -192 -121 -153 -174 -346 -147 -534 11 -74
64 -254 113 -378 97 -247 352 -740 396 -763 18 -10 28 -3 87 58 339 353 600
722 676 958 21 63 28 244 13 331 -17 98 -89 250 -153 321 -19 21 -35 41 -35
44 0 4 -33 32 -72 62 -75 57 -151 96 -228 117 -47 13 -138 28 -142 25z m85
-215 c215 -45 381 -276 372 -517 -5 -131 -79 -280 -258 -518 -111 -147 -301
-365 -310 -355 -3 3 -33 59 -68 125 -138 260 -238 499 -280 665 -36 145 -15
289 61 401 112 168 287 240 483 199z"/>
</g>
</svg>
